<svg width="402" height="101" viewBox="0 0 402 101" fill="none" xmlns="http://www.w3.org/2000/svg">
<path fill-rule="evenodd" clip-rule="evenodd" d="M85.642 0.320581C85.614 0.650165 85.6007 0.983838 85.603 1.32095C85.6445 7.39652 90.716 12.2888 96.9304 12.2482C103.145 12.2076 108.149 7.2495 108.107 1.17393C108.105 0.83682 108.087 0.50335 108.055 0.174162L114.238 0.133767C121.018 0.0894785 126.55 5.42654 126.595 12.0544L126.699 27.2555C131.375 28.1517 134.917 32.1645 134.95 37.0028C134.983 41.841 131.496 45.8997 126.833 46.8569L126.978 68.0584C127.088 84.0759 113.895 97.1473 97.5114 97.2543C81.1279 97.3613 67.7577 84.4635 67.6482 68.446L67.5033 47.2445C62.8279 46.3483 59.286 42.3355 59.2529 37.4973C59.2198 32.659 62.7066 28.6003 67.3694 27.6431L67.2655 12.442C67.2202 5.81413 72.6792 0.405265 79.4586 0.360976L85.642 0.320581Z" fill="#F7F7F7"/>
<ellipse cx="85.5967" cy="45.9871" rx="4.09181" ry="5.11476" fill="#303030"/>
<ellipse cx="110.147" cy="45.9871" rx="4.09181" ry="5.11476" fill="#303030"/>
<rect y="73" width="402" height="28" fill="#2A2C34"/>
<rect x="57" y="65.5117" width="12.9294" height="18.3166" rx="4" fill="#D9D9D9"/>
<ellipse cx="63.4651" cy="68.743" rx="4.30978" ry="2.15489" fill="#615353"/>
<path d="M73.6875 56.5H120.936C121.224 56.5 121.453 56.7434 121.435 57.0312L119.753 83.9346C119.736 84.1981 119.518 84.4033 119.254 84.4033H75.3691C75.1051 84.4033 74.8866 84.1981 74.8701 83.9346L73.1885 57.0312C73.1727 56.7795 73.3455 56.5614 73.582 56.5107L73.6875 56.5Z" fill="#D9D9D9" stroke="#D5CDCD"/>
<path d="M100.924 70.4544C100.924 72.4497 99.3064 74.6693 97.3111 74.6693C95.3158 74.6693 93.6982 72.4497 93.6982 70.4544C93.6982 68.4591 95.3158 66.8416 97.3111 66.8416C99.3064 66.8416 100.924 68.4591 100.924 70.4544Z" fill="white"/>
<circle cx="97.3119" cy="66.8446" r="2.40854" fill="#D9D9D9"/>
</svg>
