<svg width="90" height="66" viewBox="0 0 90 66" fill="none" xmlns="http://www.w3.org/2000/svg">
<path fill-rule="evenodd" clip-rule="evenodd" d="M14.413 17.4123C14.413 20.1446 16.6906 22.3596 19.5 22.3596C22.3094 22.3596 24.587 20.1446 24.587 17.4123C24.587 17.2734 24.5811 17.1359 24.5695 17H25.8587C30.5411 17 34.337 20.6917 34.337 25.2456V29.7976C36.9481 30.0071 39 32.1345 39 34.7281C39 37.3216 36.9481 39.449 34.337 39.6585V64H19.288C10.9768 64 4.23913 57.4473 4.23913 49.364V39.607C1.83325 39.2145 -1.37091e-06 37.1795 -1.37091e-06 34.7281C-1.37091e-06 32.2766 1.83325 30.2417 4.23913 29.8491V25.2456C4.23913 20.6917 8.03497 17 12.7174 17H14.4305C14.4189 17.1359 14.413 17.2734 14.413 17.4123Z" fill="#2D2B34"/>
<path fill-rule="evenodd" clip-rule="evenodd" d="M70.587 17.4123C70.587 20.1446 68.3094 22.3596 65.5 22.3596C62.6906 22.3596 60.413 20.1446 60.413 17.4123C60.413 17.2734 60.4189 17.1359 60.4305 17H59.1413C54.4589 17 50.663 20.6917 50.663 25.2456V29.7976C48.0519 30.0071 46 32.1345 46 34.7281C46 37.3216 48.0519 39.449 50.663 39.6585V64H65.712C74.0232 64 80.7609 57.4473 80.7609 49.364V39.607C83.1667 39.2145 85 37.1795 85 34.7281C85 32.2766 83.1667 30.2417 80.7609 29.8491V25.2456C80.7609 20.6917 76.965 17 72.2826 17H70.5695C70.5811 17.1359 70.587 17.2734 70.587 17.4123Z" fill="#2D2B34"/>
<path fill-rule="evenodd" clip-rule="evenodd" d="M50.413 0.578947C50.413 4.41587 47.318 7.52632 43.5 7.52632C39.682 7.52632 36.587 4.41587 36.587 0.578947C36.587 0.383985 36.595 0.190898 36.6106 0H34.8587C28.4954 0 23.337 5.18407 23.337 11.5789V17.9712C19.7885 18.2653 17 21.2528 17 24.8947C17 28.5367 19.7885 31.5241 23.337 31.8183V66H43.788C55.0829 66 64.2391 56.7983 64.2391 45.4474V31.7461C67.5087 31.1948 70 28.3372 70 24.8947C70 21.4523 67.5087 18.5947 64.2391 18.0434V11.5789C64.2391 5.18407 59.0807 0 52.7174 0H50.3894C50.405 0.190898 50.413 0.383985 50.413 0.578947Z" fill="white"/>
<path d="M35.613 32.968C37.0561 32.968 38.226 31.4082 38.226 29.484C38.226 27.5598 37.0561 26 35.613 26C34.1699 26 33 27.5598 33 29.484C33 31.4082 34.1699 32.968 35.613 32.968Z" fill="#1A1A1A"/>
<path d="M52.613 32.968C54.0561 32.968 55.226 31.4082 55.226 29.484C55.226 27.5598 54.0561 26 52.613 26C51.1699 26 50 27.5598 50 29.484C50 31.4082 51.1699 32.968 52.613 32.968Z" fill="#1A1A1A"/>
<path d="M23 42H33.8C35.5673 42 37 44.0467 37 46.5714V66H23V42Z" fill="#2B2B2B"/>
<path d="M51 46.5714C51 44.0467 53.1802 42 55.8696 42H65V57.7143C65 62.2903 61.0484 66 56.1739 66H51V46.5714Z" fill="#2B2B2B"/>
<path d="M51 48H37V66H51V48Z" fill="url(#paint0_linear_99_37)"/>
<defs>
<linearGradient id="paint0_linear_99_37" x1="45.7394" y1="63.763" x2="44.0504" y2="63.9142" gradientUnits="userSpaceOnUse">
<stop offset="0.11" stop-color="#68E3FF"/>
<stop offset="0.98" stop-color="#62BCFD"/>
</linearGradient>
</defs>
</svg>
