<svg width="159" height="192" viewBox="0 0 159 192" fill="none" xmlns="http://www.w3.org/2000/svg">
<ellipse cx="79.5" cy="155.081" rx="79.5" ry="36" fill="#131416"/>
<ellipse cx="29.5" cy="142.581" rx="13.5" ry="6.5" fill="#D9D9D9"/>
<rect x="28" y="13.0811" width="3" height="125" rx="1.5" fill="#D9D9D9"/>
<path d="M21.0314 8.5591C20.8679 4.42019 24.0906 0.932409 28.2295 0.768922L30.1876 0.691578C34.3265 0.528091 37.8142 3.75081 37.9777 7.88971L38.3783 18.0315C38.4001 18.5833 37.9704 19.0484 37.4186 19.0702L21.4714 19.7001L21.0314 8.5591Z" fill="#9C9C9C"/>
<rect x="11.3047" y="16.2432" width="37.0027" height="6.16712" rx="3.08356" transform="rotate(-2.26201 11.3047 16.2432)" fill="#D9D9D9"/>
<path fill-rule="evenodd" clip-rule="evenodd" d="M72.0442 63.4373C72.0168 63.7595 72.0038 64.0857 72.0061 64.4152C72.0467 70.3544 77.0044 75.137 83.0794 75.0973C89.1543 75.0576 94.0462 70.2107 94.0056 64.2715C94.0034 63.9419 93.9859 63.6159 93.9541 63.2941L99.9988 63.2547C106.626 63.2114 112.034 68.4287 112.079 74.9078L112.18 89.7679C116.751 90.6439 120.213 94.5667 120.246 99.2964C120.278 104.026 116.869 107.994 112.311 108.929L112.453 129.655C112.56 145.313 99.6633 158.091 83.6473 158.196C67.6314 158.301 54.5612 145.692 54.4542 130.034L54.3125 109.308C49.742 108.432 46.2796 104.509 46.2472 99.7798C46.2149 95.0501 49.6234 91.0824 54.1816 90.1467L54.08 75.2867C54.0357 68.8076 59.3723 63.5201 65.9996 63.4768L72.0442 63.4373Z" fill="#F7F7F7"/>
<ellipse cx="72" cy="108.08" rx="4" ry="5" fill="#303030"/>
<ellipse cx="96" cy="108.08" rx="4" ry="5" fill="#303030"/>
<rect x="38" y="135.081" width="92" height="23" rx="5" fill="#2A2C34"/>
<path d="M38 154.081H130V164.081C130 166.842 127.761 169.081 125 169.081H43C40.2386 169.081 38 166.842 38 164.081V154.081Z" fill="#1F2129"/>
<rect x="51" y="129.081" width="12" height="17" rx="4" fill="#D9D9D9"/>
<ellipse cx="57" cy="132.081" rx="4" ry="2" fill="#615353"/>
<path d="M66.5645 123.581H105.436C105.724 123.581 105.953 123.824 105.935 124.112L104.56 146.112C104.543 146.376 104.325 146.581 104.061 146.581H67.9395C67.6754 146.581 67.4569 146.376 67.4404 146.112L66.0654 124.112C66.0474 123.824 66.276 123.581 66.5645 123.581Z" fill="#D9D9D9" stroke="#D5CDCD"/>
<path d="M89 135.081C89 136.738 87.6569 138.581 86 138.581C84.3431 138.581 83 136.738 83 135.081C83 133.424 84.3431 132.081 86 132.081C87.6569 132.081 89 133.424 89 135.081Z" fill="white"/>
<circle cx="86" cy="132.081" r="2" fill="#D9D9D9"/>
</svg>
