<svg width="67" height="58" viewBox="0 0 67 58" fill="none" xmlns="http://www.w3.org/2000/svg">
<rect x="4.29895" y="7.07422" width="63" height="44.3077" rx="9" transform="rotate(5.56784 4.29895 7.07422)" fill="white"/>
<path d="M25.5244 10.5318C34.278 -0.579021 38.4669 -0.355838 44.8175 12.4125" stroke="white" stroke-width="5"/>
<g clip-path="url(#clip0_99_33)">
<path d="M34.3422 39.344C34.6338 36.3147 37.3255 34.0952 40.3541 34.3858C41.533 34.4989 42.6445 34.9893 43.5222 35.7844C45.723 30.0772 42.8801 23.6668 37.1738 21.4661C31.4675 19.2655 25.0581 22.1075 22.8574 27.8147C20.6566 33.522 23.4994 39.9333 29.2057 42.1339C31.0828 42.8576 33.1215 43.0564 35.103 42.7088C34.4948 41.698 34.2277 40.5182 34.3422 39.344ZM34.1072 31.908C34.0833 32.1524 33.9632 32.3763 33.7736 32.5321L30.7437 35.0247C30.3436 35.3418 29.7621 35.2749 29.445 34.8749C29.1352 34.4848 29.1904 33.9189 29.5697 33.596L32.3041 31.3473L32.7156 27.1267C32.7651 26.6187 33.2169 26.2463 33.7259 26.2959C34.2339 26.3454 34.6053 26.7981 34.5558 27.3061L34.1072 31.908Z" fill="#252525"/>
</g>
<defs>
<clipPath id="clip0_99_33">
<rect width="22.1538" height="22.1538" fill="white" transform="translate(23.2404 19.6992) rotate(5.56784)"/>
</clipPath>
</defs>
</svg>
