<svg width="512" height="512" viewBox="0 0 512 512" fill="none" xmlns="http://www.w3.org/2000/svg">
<path d="M426.449 234.667C426.449 246.464 416.891 256 405.115 256C393.339 256 383.782 246.464 383.782 234.667C383.782 175.851 335.931 128 277.115 128C265.339 128 255.782 118.464 255.782 106.667C255.782 94.8693 265.339 85.3333 277.115 85.3333C359.462 85.3333 426.449 152.341 426.449 234.667ZM298.449 234.667C298.449 246.464 308.006 256 319.782 256C331.558 256 341.115 246.464 341.115 234.667C341.115 199.381 312.401 170.667 277.115 170.667C265.339 170.667 255.782 180.203 255.782 192C255.782 203.797 265.339 213.333 277.115 213.333C288.891 213.333 298.449 222.891 298.449 234.667ZM277.115 0C265.339 0 255.782 9.536 255.782 21.3333C255.782 33.1307 265.339 42.6667 277.115 42.6667C382.971 42.6667 469.115 128.789 469.115 234.667C469.115 246.464 478.673 256 490.449 256C502.225 256 511.782 246.464 511.782 234.667C511.782 105.28 406.502 0 277.115 0ZM346.363 391.488C358.139 403.264 363.878 419.499 362.15 436.075C360.379 452.821 351.249 467.691 337.083 476.907C301.009 500.352 259.75 511.787 218.705 511.787C162.086 511.787 105.809 490.048 63.7819 448.021C-8.73014 375.531 -20.8901 260.587 34.8965 174.677C44.0912 160.533 58.9605 151.381 75.7072 149.632C92.2619 147.84 108.539 153.621 120.315 165.397L218.257 263.339L240.699 240.896C249.041 232.555 262.523 232.555 270.865 240.896C279.206 249.237 279.206 262.72 270.865 271.061L248.422 293.504L346.363 391.445V391.488Z" fill="white"/>
</svg>
