<svg width="434" height="534" viewBox="0 0 434 534" fill="none" xmlns="http://www.w3.org/2000/svg">
<path d="M362.497 283.679C363.03 242.115 384.812 203.729 420.219 181.969C397.793 149.918 361.541 130.337 322.444 129.114C281.302 124.802 241.428 153.719 220.468 153.719C199.108 153.719 166.835 129.536 132.072 130.248C86.352 131.737 44.7436 157.098 22.4947 197.083C-24.8704 279.1 10.4478 399.658 55.8347 465.96C78.5504 498.433 105.067 534.685 139.807 533.418C173.792 532.018 186.483 511.747 227.492 511.747C268.122 511.747 280.036 533.418 315.465 532.596C351.917 531.995 374.899 499.989 396.815 467.205C413.129 444.067 425.687 418.506 434 391.456C390.702 373.141 362.541 330.71 362.497 283.679Z" fill="white"/>
<path d="M295.572 85.5061C315.442 61.6347 325.244 30.9618 322.866 0C292.504 3.20065 264.432 17.7147 244.295 40.6527C224.402 63.3017 214.311 92.9076 216.267 123.003C247.051 123.314 276.279 109.489 295.572 85.5061Z" fill="white"/>
</svg>
