<svg width="513" height="513" viewBox="0 0 513 513" fill="none" xmlns="http://www.w3.org/2000/svg">
<path d="M256.022 0C188.149 0.0734097 123.077 27.0683 75.0837 75.0617C27.0903 123.055 0.095375 188.127 0.0219653 256C-2.6447 460.245 238.081 585.152 403.222 465.429C406.683 463.02 409.634 459.951 411.905 456.398C414.176 452.845 415.722 448.878 416.455 444.726C417.188 440.573 417.093 436.316 416.175 432.201C415.257 428.085 413.535 424.191 411.108 420.743C408.68 417.295 405.595 414.361 402.03 412.109C398.464 409.857 394.489 408.332 390.333 407.622C386.176 406.912 381.92 407.03 377.809 407.97C373.699 408.91 369.814 410.653 366.379 413.099C243.649 503.083 61.0993 408.448 64.022 256C74.0913 1.49333 437.974 1.53599 448.022 256V288C448.022 296.487 444.651 304.626 438.649 310.627C432.648 316.629 424.509 320 416.022 320C407.535 320 399.396 316.629 393.395 310.627C387.393 304.626 384.022 296.487 384.022 288V256C378.646 86.848 133.377 86.8693 128.022 256C128.235 280.807 135.632 305.02 149.318 325.712C163.003 346.403 182.392 362.685 205.137 372.588C227.882 382.492 253.01 385.592 277.48 381.514C301.95 377.436 324.715 366.355 343.019 349.611C355.726 364.492 372.678 375.134 391.602 380.113C410.527 385.091 430.52 384.167 448.905 377.465C467.29 370.763 483.187 358.602 494.468 342.612C505.749 326.623 511.873 307.568 512.022 288V256C511.949 188.127 484.954 123.055 436.96 75.0617C388.967 27.0683 323.895 0.0734097 256.022 0ZM256.022 320C239.048 320 222.769 313.257 210.767 301.255C198.765 289.253 192.022 272.974 192.022 256C192.022 239.026 198.765 222.747 210.767 210.745C222.769 198.743 239.048 192 256.022 192C272.996 192 289.274 198.743 301.277 210.745C313.279 222.747 320.022 239.026 320.022 256C320.022 272.974 313.279 289.253 301.277 301.255C289.274 313.257 272.996 320 256.022 320Z" fill="white"/>
</svg>
