<svg width="470" height="512" viewBox="0 0 470 512" fill="none" xmlns="http://www.w3.org/2000/svg">
<path d="M257.131 108.352C277.845 88.96 307.136 58.0053 318.869 28.48C324.309 14.8053 313.387 0 298.667 0H170.667C155.947 0 145.024 14.784 150.464 28.48C162.197 58.0053 191.488 88.96 212.203 108.352C97.472 125.397 0 269.184 0 384C0 454.592 57.408 512 128 512H341.333C411.925 512 469.333 454.592 469.333 384C469.333 269.184 371.861 125.397 257.131 108.352ZM205.739 293.568L270.635 304.384C299.243 309.141 320.021 333.675 320.021 362.688C320.021 397.973 291.307 426.688 256.021 426.688V448.021C256.021 459.797 246.464 469.355 234.688 469.355C222.912 469.355 213.355 459.797 213.355 448.021V426.688H207.637C184.853 426.688 163.627 414.443 152.213 394.709C146.325 384.512 149.803 371.477 160 365.568C170.155 359.659 183.232 363.136 189.141 373.355C192.939 379.925 200.043 384.021 207.637 384.021H256.021C267.776 384.021 277.355 374.443 277.355 362.688C277.355 354.624 271.573 347.797 263.616 346.475L198.72 335.659C170.112 330.901 149.333 306.368 149.333 277.355C149.333 242.069 178.048 213.355 213.333 213.355V192.021C213.333 180.245 222.891 170.688 234.667 170.688C246.443 170.688 256 180.245 256 192.021V213.355H261.717C284.48 213.355 305.728 225.621 317.141 245.355C323.029 255.552 319.552 268.587 309.355 274.496C299.179 280.405 286.123 276.928 280.213 266.709C276.395 260.117 269.312 256.043 261.717 256.043H213.333C201.579 256.043 192 265.621 192 277.376C192 285.44 197.781 292.267 205.739 293.589V293.568Z" fill="white"/>
</svg>
