<svg width="512" height="512" viewBox="0 0 512 512" fill="none" xmlns="http://www.w3.org/2000/svg">
<path d="M444.897 327.066L364.428 458.372C355.591 472.879 343.562 485.179 329.255 494.336C314.948 503.493 298.741 509.266 281.868 511.215C277.421 511.742 272.948 512.006 268.47 512.004C245.547 511.973 223.193 504.857 204.47 491.631C185.122 506.126 161.222 513.212 137.1 511.603C112.978 509.995 90.2295 499.8 72.9769 482.864C55.7242 465.929 45.1084 443.374 43.0528 419.286C40.9972 395.198 47.6379 371.17 61.7716 351.556L33.7182 323.546C21.7395 311.566 12.6263 297.032 7.06121 281.031C1.49611 265.03 -0.376687 247.977 1.58308 231.15C3.54284 214.323 9.28438 198.157 18.3777 183.863C27.471 169.57 39.6804 157.518 54.0916 148.612L177.121 72.5377C210.448 51.1783 249.641 40.8225 289.169 42.9316C328.697 45.0406 366.565 59.508 397.43 84.2924L432.822 48.9004C434.79 46.8628 437.144 45.2376 439.747 44.1195C442.35 43.0015 445.149 42.413 447.982 42.3883C450.814 42.3637 453.623 42.9035 456.245 43.9762C458.867 45.0488 461.249 46.6329 463.252 48.6359C465.255 50.639 466.839 53.0209 467.912 55.6427C468.984 58.2645 469.524 61.0736 469.5 63.9062C469.475 66.7389 468.886 69.5382 467.768 72.141C466.65 74.7437 465.025 77.0978 462.988 79.0657L427.638 114.436C451.347 144.137 465.654 180.237 468.729 218.116C471.803 255.995 463.505 293.93 444.897 327.066ZM171.958 461.807L92.6196 382.447C86.4196 393.535 84.0283 406.351 85.8125 418.929C87.5967 431.507 93.4578 443.152 102.497 452.079C111.615 460.741 123.213 466.335 135.668 468.079C148.123 469.823 160.811 467.63 171.958 461.807ZM383.606 129.007C359.917 105.089 328.732 90.0315 295.269 86.354C261.806 82.6765 228.096 90.6019 199.777 108.804L76.5342 184.879C67.5964 190.404 60.0244 197.879 54.385 206.745C48.7457 215.611 45.1853 225.637 43.9705 236.074C42.7557 246.511 43.9179 257.088 47.3701 267.012C50.8222 276.936 56.475 285.951 63.9049 293.38L219.425 448.922C226.867 456.372 235.901 462.038 245.848 465.493C255.795 468.949 266.397 470.104 276.855 468.872C287.313 467.64 297.355 464.053 306.227 458.38C315.099 452.708 322.569 445.097 328.076 436.122L408.182 305.455C423.828 277.353 429.893 244.919 425.459 213.062C421.025 181.206 406.332 151.661 383.606 128.9V129.007ZM410.892 512.004C406.386 512.013 401.994 510.594 398.344 507.953C394.695 505.311 391.975 501.582 390.575 497.299C389.175 493.017 389.167 488.401 390.552 484.114C391.937 479.827 394.643 476.088 398.284 473.434C435.638 445.349 460.919 404.114 469.004 358.084C469.57 355.313 470.683 352.683 472.275 350.346C473.868 348.009 475.91 346.011 478.282 344.471C480.654 342.93 483.308 341.876 486.091 341.37C488.874 340.865 491.729 340.918 494.491 341.526C497.253 342.134 499.867 343.285 502.18 344.913C504.493 346.54 506.46 348.612 507.965 351.006C509.47 353.401 510.484 356.07 510.948 358.86C511.412 361.65 511.317 364.505 510.668 367.258C500.215 423.4 469.097 473.584 423.457 507.908C419.808 510.569 415.408 512.004 410.892 512.004ZM21.2382 122.436C17.298 122.419 13.4397 121.31 10.091 119.234C6.74225 117.157 4.03404 114.194 2.2666 110.672C0.499173 107.151 -0.258419 103.209 0.0778308 99.2827C0.41408 95.3568 1.83103 91.6008 4.17158 88.431C38.9658 41.9369 90.1837 10.4646 147.382 0.431018C152.927 -0.700573 158.694 0.416844 163.415 3.53745C168.136 6.65806 171.424 11.5262 172.556 17.071C173.687 22.6158 172.57 28.383 169.449 33.1039C166.329 37.8249 161.46 41.1128 155.916 42.2444C108.939 50.0016 66.7899 75.6444 38.3049 113.796C36.329 116.466 33.7572 118.636 30.7943 120.136C27.8314 121.636 24.5592 122.424 21.2382 122.436Z" fill="white"/>
</svg>
