<svg width="511" height="513" viewBox="0 0 511 513" fill="none" xmlns="http://www.w3.org/2000/svg">
<path d="M48.5354 366.767L165.869 484.1C149.463 490.782 131.45 492.475 114.087 488.967C96.7232 485.46 80.7803 476.907 68.2544 464.381C55.7285 451.856 47.1763 435.913 43.6687 418.549C40.1611 401.186 41.854 383.173 48.5354 366.767ZM155.565 42.2444C161.11 41.1128 165.978 37.8249 169.098 33.1039C172.219 28.383 173.336 22.6158 172.205 17.071C171.073 11.5262 167.785 6.65806 163.064 3.53745C158.343 0.416844 152.576 -0.700573 147.031 0.431018C89.8228 10.4533 38.5944 41.9274 3.79945 88.431C0.641647 92.9874 -0.61851 98.594 0.285891 104.063C1.19029 109.533 4.18822 114.435 8.64467 117.733C13.1011 121.03 18.6661 122.463 24.1608 121.728C29.6556 120.993 34.6485 118.149 38.0821 113.796C66.544 75.6807 108.639 50.0433 155.565 42.2444ZM494.189 341.828C488.664 340.616 482.884 341.647 478.119 344.696C473.355 347.744 469.996 352.56 468.781 358.084C460.676 404.117 435.381 445.35 398.018 473.434C393.446 476.772 390.388 481.789 389.516 487.383C388.644 492.976 390.029 498.686 393.367 503.258C396.706 507.829 401.723 510.888 407.316 511.76C412.909 512.632 418.62 511.247 423.191 507.908C468.848 473.592 499.981 423.406 510.445 367.258C511.048 364.521 511.106 361.691 510.616 358.932C510.125 356.172 509.096 353.536 507.586 351.175C506.077 348.813 504.116 346.772 501.817 345.168C499.519 343.565 496.926 342.43 494.189 341.828ZM429.485 111.94L462.338 79.087C464.376 77.1191 466.001 74.7651 467.119 72.1623C468.237 69.5596 468.826 66.7602 468.85 63.9276C468.875 61.095 468.335 58.2858 467.262 55.664C466.19 53.0422 464.606 50.6603 462.603 48.6573C460.6 46.6542 458.218 45.0702 455.596 43.9975C452.974 42.9248 450.165 42.3851 447.332 42.4097C444.5 42.4343 441.7 43.0228 439.098 44.1409C436.495 45.2589 434.141 46.8841 432.173 48.9217L399.277 81.8177C369.824 58.4131 333.79 44.8023 296.219 42.8896C258.648 40.977 221.418 50.8584 189.741 71.151L72.4074 143.684C58.6485 152.188 46.9917 163.693 38.3097 177.34C29.6278 190.987 24.1458 206.421 22.2743 222.487C20.4028 238.553 22.1903 254.834 27.5029 270.111C32.8155 285.388 41.5155 299.265 52.9514 310.703L201.41 459.162C212.869 470.624 226.778 479.34 242.09 484.653C257.403 489.966 273.72 491.738 289.816 489.837C305.913 487.936 321.368 482.41 335.021 473.675C348.674 464.94 360.169 453.224 368.642 439.407L445.442 314.052C463.095 282.57 471.002 246.555 468.161 210.573C465.32 174.591 451.859 140.263 429.485 111.94Z" fill="white"/>
</svg>
