<svg width="512" height="512" viewBox="0 0 512 512" fill="none" xmlns="http://www.w3.org/2000/svg">
<path d="M405.252 0H106.646C47.7464 0 0 47.7464 0 106.645C0 141.983 28.6482 170.632 63.9871 170.632H447.91C481.595 171.043 509.711 145.018 511.897 111.401C514.465 52.4994 468.798 2.66846 409.897 0.10098C408.349 0.0329934 406.8 0 405.252 0Z" fill="white"/>
<path d="M469.239 213.29H42.6588C30.8792 213.29 21.3301 222.839 21.3301 234.619V405.251C21.4001 464.121 69.1055 511.826 127.975 511.897H383.923C442.792 511.826 490.498 464.121 490.569 405.251V234.619C490.569 222.839 481.019 213.29 469.239 213.29ZM319.936 319.936H191.962C180.182 319.936 170.633 310.387 170.633 298.607C170.633 286.827 180.182 277.278 191.962 277.278H319.936C331.716 277.278 341.265 286.827 341.265 298.607C341.265 310.387 331.716 319.936 319.936 319.936Z" fill="white"/>
</svg>
