<svg width="512" height="512" viewBox="0 0 512 512" fill="none" xmlns="http://www.w3.org/2000/svg">
<path d="M234.667 277.333H64C28.6507 277.333 0 305.984 0 341.333V448C0 483.349 28.6507 512 64 512H234.667V277.333ZM74.6667 362.667C74.6667 350.891 84.224 341.333 96 341.333H138.667C150.443 341.333 160 350.891 160 362.667C160 374.443 150.443 384 138.667 384H96C84.224 384 74.6667 374.443 74.6667 362.667ZM448 277.333H277.333V512H448C483.349 512 512 483.349 512 448V341.333C512 305.984 483.349 277.333 448 277.333ZM416 384H373.333C361.557 384 352 374.443 352 362.667C352 350.891 361.557 341.333 373.333 341.333H416C427.776 341.333 437.333 350.891 437.333 362.667C437.333 374.443 427.776 384 416 384ZM320 0H192C156.651 0 128 28.6507 128 64V234.667H384V64C384 28.6507 355.349 0 320 0ZM277.333 106.667H234.667C222.891 106.667 213.333 97.1093 213.333 85.3333C213.333 73.5573 222.891 64 234.667 64H277.333C289.109 64 298.667 73.5573 298.667 85.3333C298.667 97.1093 289.109 106.667 277.333 106.667Z" fill="white"/>
</svg>
