<svg width="512" height="512" viewBox="0 0 512 512" fill="none" xmlns="http://www.w3.org/2000/svg">
<path d="M192 0H106.667C78.3769 0 51.2458 11.2381 31.2419 31.2419C11.2381 51.2458 0 78.3769 0 106.667L0 405.333C0 419.341 2.75901 433.212 8.11952 446.153C13.48 459.094 21.337 470.853 31.2419 480.758C51.2458 500.762 78.3769 512 106.667 512H298.667V106.667C298.667 92.659 295.908 78.7885 290.547 65.8471C285.187 52.9057 277.33 41.1469 267.425 31.2419C257.52 21.337 245.761 13.48 232.82 8.11952C219.878 2.75901 206.008 0 192 0ZM106.667 405.333H85.3333C79.6754 405.333 74.2492 403.086 70.2484 399.085C66.2476 395.084 64 389.658 64 384C64 378.342 66.2476 372.916 70.2484 368.915C74.2492 364.914 79.6754 362.667 85.3333 362.667H106.667C112.325 362.667 117.751 364.914 121.752 368.915C125.752 372.916 128 378.342 128 384C128 389.658 125.752 395.084 121.752 399.085C117.751 403.086 112.325 405.333 106.667 405.333ZM106.667 320H85.3333C79.6754 320 74.2492 317.752 70.2484 313.752C66.2476 309.751 64 304.325 64 298.667C64 293.009 66.2476 287.583 70.2484 283.582C74.2492 279.581 79.6754 277.333 85.3333 277.333H106.667C112.325 277.333 117.751 279.581 121.752 283.582C125.752 287.583 128 293.009 128 298.667C128 304.325 125.752 309.751 121.752 313.752C117.751 317.752 112.325 320 106.667 320ZM106.667 234.667H85.3333C79.6754 234.667 74.2492 232.419 70.2484 228.418C66.2476 224.418 64 218.991 64 213.333C64 207.675 66.2476 202.249 70.2484 198.248C74.2492 194.248 79.6754 192 85.3333 192H106.667C112.325 192 117.751 194.248 121.752 198.248C125.752 202.249 128 207.675 128 213.333C128 218.991 125.752 224.418 121.752 228.418C117.751 232.419 112.325 234.667 106.667 234.667ZM106.667 149.333H85.3333C79.6754 149.333 74.2492 147.086 70.2484 143.085C66.2476 139.084 64 133.658 64 128C64 122.342 66.2476 116.916 70.2484 112.915C74.2492 108.914 79.6754 106.667 85.3333 106.667H106.667C112.325 106.667 117.751 108.914 121.752 112.915C125.752 116.916 128 122.342 128 128C128 133.658 125.752 139.084 121.752 143.085C117.751 147.086 112.325 149.333 106.667 149.333ZM213.333 405.333H192C186.342 405.333 180.916 403.086 176.915 399.085C172.914 395.084 170.667 389.658 170.667 384C170.667 378.342 172.914 372.916 176.915 368.915C180.916 364.914 186.342 362.667 192 362.667H213.333C218.991 362.667 224.418 364.914 228.418 368.915C232.419 372.916 234.667 378.342 234.667 384C234.667 389.658 232.419 395.084 228.418 399.085C224.418 403.086 218.991 405.333 213.333 405.333ZM213.333 320H192C186.342 320 180.916 317.752 176.915 313.752C172.914 309.751 170.667 304.325 170.667 298.667C170.667 293.009 172.914 287.583 176.915 283.582C180.916 279.581 186.342 277.333 192 277.333H213.333C218.991 277.333 224.418 279.581 228.418 283.582C232.419 287.583 234.667 293.009 234.667 298.667C234.667 304.325 232.419 309.751 228.418 313.752C224.418 317.752 218.991 320 213.333 320ZM213.333 234.667H192C186.342 234.667 180.916 232.419 176.915 228.418C172.914 224.418 170.667 218.991 170.667 213.333C170.667 207.675 172.914 202.249 176.915 198.248C180.916 194.248 186.342 192 192 192H213.333C218.991 192 224.418 194.248 228.418 198.248C232.419 202.249 234.667 207.675 234.667 213.333C234.667 218.991 232.419 224.418 228.418 228.418C224.418 232.419 218.991 234.667 213.333 234.667ZM213.333 149.333H192C186.342 149.333 180.916 147.086 176.915 143.085C172.914 139.084 170.667 133.658 170.667 128C170.667 122.342 172.914 116.916 176.915 112.915C180.916 108.914 186.342 106.667 192 106.667H213.333C218.991 106.667 224.418 108.914 228.418 112.915C232.419 116.916 234.667 122.342 234.667 128C234.667 133.658 232.419 139.084 228.418 143.085C224.418 147.086 218.991 149.333 213.333 149.333ZM405.333 106.667H341.333V512H405.333C433.613 511.966 460.724 500.717 480.721 480.721C500.717 460.724 511.966 433.613 512 405.333V213.333C511.966 185.054 500.717 157.943 480.721 137.946C460.724 117.949 433.613 106.701 405.333 106.667ZM426.667 405.333C422.447 405.333 418.323 404.082 414.815 401.738C411.306 399.394 408.572 396.062 406.957 392.164C405.343 388.266 404.92 383.976 405.743 379.838C406.566 375.7 408.598 371.899 411.582 368.915C414.565 365.932 418.366 363.9 422.505 363.077C426.643 362.253 430.932 362.676 434.831 364.291C438.729 365.905 442.061 368.64 444.405 372.148C446.749 375.656 448 379.781 448 384C448 389.658 445.752 395.084 441.752 399.085C437.751 403.086 432.325 405.333 426.667 405.333ZM426.667 320C422.447 320 418.323 318.749 414.815 316.405C411.306 314.061 408.572 310.729 406.957 306.831C405.343 302.932 404.92 298.643 405.743 294.505C406.566 290.366 408.598 286.565 411.582 283.582C414.565 280.598 418.366 278.566 422.505 277.743C426.643 276.92 430.932 277.343 434.831 278.957C438.729 280.572 442.061 283.306 444.405 286.815C446.749 290.323 448 294.447 448 298.667C448 304.325 445.752 309.751 441.752 313.752C437.751 317.752 432.325 320 426.667 320ZM426.667 234.667C422.447 234.667 418.323 233.415 414.815 231.071C411.306 228.727 408.572 225.395 406.957 221.497C405.343 217.599 404.92 213.31 405.743 209.171C406.566 205.033 408.598 201.232 411.582 198.248C414.565 195.265 418.366 193.233 422.505 192.41C426.643 191.587 430.932 192.009 434.831 193.624C438.729 195.239 442.061 197.973 444.405 201.481C446.749 204.989 448 209.114 448 213.333C448 218.991 445.752 224.418 441.752 228.418C437.751 232.419 432.325 234.667 426.667 234.667Z" fill="white"/>
</svg>
