<svg width="512" height="512" viewBox="0 0 512 512" fill="none" xmlns="http://www.w3.org/2000/svg">
<path d="M149.333 298.667C149.333 304.325 147.086 309.751 143.085 313.752C139.084 317.752 133.658 320 128 320H106.667C101.009 320 95.5825 317.752 91.5817 313.752C87.581 309.751 85.3333 304.325 85.3333 298.667C85.3333 293.009 87.581 287.583 91.5817 283.582C95.5825 279.581 101.009 277.333 106.667 277.333H128C133.658 277.333 139.084 279.581 143.085 283.582C147.086 287.583 149.333 293.009 149.333 298.667ZM234.667 277.333H213.333C207.675 277.333 202.249 279.581 198.248 283.582C194.248 287.583 192 293.009 192 298.667C192 304.325 194.248 309.751 198.248 313.752C202.249 317.752 207.675 320 213.333 320H234.667C240.325 320 245.751 317.752 249.752 313.752C253.752 309.751 256 304.325 256 298.667C256 293.009 253.752 287.583 249.752 283.582C245.751 279.581 240.325 277.333 234.667 277.333ZM128 362.667H106.667C101.009 362.667 95.5825 364.914 91.5817 368.915C87.581 372.916 85.3333 378.342 85.3333 384C85.3333 389.658 87.581 395.084 91.5817 399.085C95.5825 403.086 101.009 405.333 106.667 405.333H128C133.658 405.333 139.084 403.086 143.085 399.085C147.086 395.084 149.333 389.658 149.333 384C149.333 378.342 147.086 372.916 143.085 368.915C139.084 364.914 133.658 362.667 128 362.667ZM234.667 362.667H213.333C207.675 362.667 202.249 364.914 198.248 368.915C194.248 372.916 192 378.342 192 384C192 389.658 194.248 395.084 198.248 399.085C202.249 403.086 207.675 405.333 213.333 405.333H234.667C240.325 405.333 245.751 403.086 249.752 399.085C253.752 395.084 256 389.658 256 384C256 378.342 253.752 372.916 249.752 368.915C245.751 364.914 240.325 362.667 234.667 362.667ZM128 106.667H106.667C101.009 106.667 95.5825 108.914 91.5817 112.915C87.581 116.916 85.3333 122.342 85.3333 128C85.3333 133.658 87.581 139.084 91.5817 143.085C95.5825 147.086 101.009 149.333 106.667 149.333H128C133.658 149.333 139.084 147.086 143.085 143.085C147.086 139.084 149.333 133.658 149.333 128C149.333 122.342 147.086 116.916 143.085 112.915C139.084 108.914 133.658 106.667 128 106.667ZM234.667 106.667H213.333C207.675 106.667 202.249 108.914 198.248 112.915C194.248 116.916 192 122.342 192 128C192 133.658 194.248 139.084 198.248 143.085C202.249 147.086 207.675 149.333 213.333 149.333H234.667C240.325 149.333 245.751 147.086 249.752 143.085C253.752 139.084 256 133.658 256 128C256 122.342 253.752 116.916 249.752 112.915C245.751 108.914 240.325 106.667 234.667 106.667ZM128 192H106.667C101.009 192 95.5825 194.248 91.5817 198.248C87.581 202.249 85.3333 207.675 85.3333 213.333C85.3333 218.991 87.581 224.418 91.5817 228.418C95.5825 232.419 101.009 234.667 106.667 234.667H128C133.658 234.667 139.084 232.419 143.085 228.418C147.086 224.418 149.333 218.991 149.333 213.333C149.333 207.675 147.086 202.249 143.085 198.248C139.084 194.248 133.658 192 128 192ZM234.667 192H213.333C207.675 192 202.249 194.248 198.248 198.248C194.248 202.249 192 207.675 192 213.333C192 218.991 194.248 224.418 198.248 228.418C202.249 232.419 207.675 234.667 213.333 234.667H234.667C240.325 234.667 245.751 232.419 249.752 228.418C253.752 224.418 256 218.991 256 213.333C256 207.675 253.752 202.249 249.752 198.248C245.751 194.248 240.325 192 234.667 192ZM512 213.333V405.333C511.966 433.613 500.717 460.724 480.721 480.721C460.724 500.717 433.613 511.966 405.333 512H106.667C78.3873 511.966 51.2759 500.717 31.2794 480.721C11.2828 460.724 0.0338743 433.613 0 405.333L0 106.667C0.0338743 78.3873 11.2828 51.2759 31.2794 31.2794C51.2759 11.2828 78.3873 0.0338743 106.667 0L234.667 0C262.946 0.0338743 290.057 11.2828 310.054 31.2794C330.051 51.2759 341.299 78.3873 341.333 106.667H405.333C433.613 106.701 460.724 117.949 480.721 137.946C500.717 157.943 511.966 185.054 512 213.333ZM106.667 469.333H298.667V106.667C298.667 89.6928 291.924 73.4142 279.922 61.4118C267.919 49.4095 251.641 42.6667 234.667 42.6667H106.667C89.6928 42.6667 73.4142 49.4095 61.4118 61.4118C49.4095 73.4142 42.6667 89.6928 42.6667 106.667V405.333C42.6667 422.307 49.4095 438.586 61.4118 450.588C73.4142 462.591 89.6928 469.333 106.667 469.333ZM469.333 213.333C469.333 196.359 462.591 180.081 450.588 168.079C438.586 156.076 422.307 149.333 405.333 149.333H341.333V469.333H405.333C422.307 469.333 438.586 462.591 450.588 450.588C462.591 438.586 469.333 422.307 469.333 405.333V213.333ZM405.333 277.333C401.114 277.333 396.989 278.585 393.481 280.929C389.973 283.273 387.239 286.605 385.624 290.503C384.009 294.401 383.587 298.69 384.41 302.829C385.233 306.967 387.265 310.768 390.248 313.752C393.232 316.735 397.033 318.767 401.171 319.59C405.31 320.413 409.599 319.991 413.497 318.376C417.395 316.761 420.727 314.027 423.071 310.519C425.416 307.011 426.667 302.886 426.667 298.667C426.667 293.009 424.419 287.583 420.418 283.582C416.418 279.581 410.991 277.333 405.333 277.333ZM405.333 362.667C401.114 362.667 396.989 363.918 393.481 366.262C389.973 368.606 387.239 371.938 385.624 375.836C384.009 379.734 383.587 384.024 384.41 388.162C385.233 392.3 387.265 396.101 390.248 399.085C393.232 402.068 397.033 404.1 401.171 404.923C405.31 405.747 409.599 405.324 413.497 403.709C417.395 402.095 420.727 399.36 423.071 395.852C425.416 392.344 426.667 388.219 426.667 384C426.667 378.342 424.419 372.916 420.418 368.915C416.418 364.914 410.991 362.667 405.333 362.667ZM405.333 192C401.114 192 396.989 193.251 393.481 195.595C389.973 197.939 387.239 201.271 385.624 205.169C384.009 209.068 383.587 213.357 384.41 217.495C385.233 221.634 387.265 225.435 390.248 228.418C393.232 231.402 397.033 233.434 401.171 234.257C405.31 235.08 409.599 234.657 413.497 233.043C417.395 231.428 420.727 228.694 423.071 225.186C425.416 221.677 426.667 217.553 426.667 213.333C426.667 207.675 424.419 202.249 420.418 198.248C416.418 194.248 410.991 192 405.333 192Z" fill="white"/>
</svg>
