<svg width="512" height="512" viewBox="0 0 512 512" fill="none" xmlns="http://www.w3.org/2000/svg">
<path d="M512 373.333V384H256V373.333C256 335.829 283.904 304.981 320 299.755C320 276.224 339.136 256 362.667 256H405.333C428.864 256 448 276.224 448 299.755C484.096 304.981 512 335.829 512 373.333ZM384 448C372.224 448 362.667 438.443 362.667 426.667H256V437.333C256 478.507 289.493 512 330.667 512H437.333C478.507 512 512 478.507 512 437.333V426.667H405.333C405.333 438.443 395.776 448 384 448ZM213.333 437.333V373.333C213.333 354.24 218.24 336.149 226.645 320H213.184C201.408 320 191.872 310.443 191.872 298.667C191.872 286.891 201.408 277.333 213.184 277.333H234.496C241.92 277.333 248.149 281.365 251.968 287.125C261.44 278.507 272.149 271.211 284.096 266.005C294.357 241.621 315.435 223.168 341.099 216.341V106.603C341.099 47.7227 293.376 0 234.496 0H106.581C47.7227 0 0 47.7227 0 106.603V405.333C0 464.235 47.7653 512 106.667 512C106.667 512 238.101 511.744 239.936 511.616C223.317 491.371 213.333 465.493 213.333 437.333ZM213.205 106.667H234.517C246.293 106.667 255.829 116.224 255.829 128C255.829 139.776 246.293 149.333 234.517 149.333H213.205C201.429 149.333 191.893 139.776 191.893 128C191.893 116.224 201.429 106.667 213.205 106.667ZM213.205 192H234.517C246.293 192 255.829 201.557 255.829 213.333C255.829 225.109 246.293 234.667 234.517 234.667H213.205C201.429 234.667 191.893 225.109 191.893 213.333C191.893 201.557 201.429 192 213.205 192ZM127.936 405.333H106.624C94.848 405.333 85.312 395.776 85.312 384C85.312 372.224 94.848 362.667 106.624 362.667H127.936C139.712 362.667 149.248 372.224 149.248 384C149.248 395.776 139.712 405.333 127.936 405.333ZM127.936 320H106.624C94.848 320 85.312 310.443 85.312 298.667C85.312 286.891 94.848 277.333 106.624 277.333H127.936C139.712 277.333 149.248 286.891 149.248 298.667C149.248 310.443 139.712 320 127.936 320ZM127.936 234.667H106.624C94.848 234.667 85.312 225.109 85.312 213.333C85.312 201.557 94.848 192 106.624 192H127.936C139.712 192 149.248 201.557 149.248 213.333C149.248 225.109 139.712 234.667 127.936 234.667ZM127.936 149.333H106.624C94.848 149.333 85.312 139.776 85.312 128C85.312 116.224 94.848 106.667 106.624 106.667H127.936C139.712 106.667 149.248 116.224 149.248 128C149.248 139.776 139.712 149.333 127.936 149.333Z" fill="white"/>
</svg>
