<svg width="512" height="512" viewBox="0 0 512 512" fill="none" xmlns="http://www.w3.org/2000/svg">
<g clip-path="url(#clip0_89_11)">
<path d="M490.667 234.66H21.3332C9.55114 234.66 -0.00012207 244.211 -0.00012207 255.994C-0.00012207 267.776 9.55114 277.327 21.3332 277.327H490.667C502.449 277.327 512 267.776 512 255.994C512 244.211 502.449 234.66 490.667 234.66Z" fill="white"/>
<path d="M490.667 85.3398H21.3332C9.55114 85.3398 -0.00012207 94.8911 -0.00012207 106.673C-0.00012207 118.455 9.55114 128.006 21.3332 128.006H490.667C502.449 128.006 512 118.455 512 106.673C512 94.8911 502.449 85.3398 490.667 85.3398Z" fill="white"/>
<path d="M490.667 384H21.3332C9.55114 384 -0.00012207 393.551 -0.00012207 405.333C-0.00012207 417.116 9.55114 426.667 21.3332 426.667H490.667C502.449 426.667 512 417.116 512 405.333C512 393.551 502.449 384 490.667 384Z" fill="white"/>
</g>
<defs>
<clipPath id="clip0_89_11">
<rect width="512" height="512" fill="white"/>
</clipPath>
</defs>
</svg>
