<svg width="512" height="512" viewBox="0 0 512 512" fill="none" xmlns="http://www.w3.org/2000/svg">
<path d="M512 490.091C512 495.749 509.752 501.175 505.752 505.176C501.751 509.176 496.325 511.424 490.667 511.424H21.3333C15.6754 511.424 10.2492 509.176 6.24839 505.176C2.24761 501.175 0 495.749 0 490.091C0 484.433 2.24761 479.007 6.24839 475.006C10.2492 471.005 15.6754 468.757 21.3333 468.757H490.667C496.325 468.757 501.751 471.005 505.752 475.006C509.752 479.007 512 484.433 512 490.091ZM80 319.424C102.784 319.424 117.333 305.408 117.333 298.091C117.333 292.433 119.581 287.007 123.582 283.006C127.583 279.005 133.009 276.757 138.667 276.757C144.325 276.757 149.751 279.005 153.752 283.006C157.752 287.007 160 292.433 160 298.091C160 304.619 174.101 319.424 197.333 319.424C220.117 319.424 234.667 305.408 234.667 298.091C234.667 292.433 236.914 287.007 240.915 283.006C244.916 279.005 250.342 276.757 256 276.757C261.658 276.757 267.084 279.005 271.085 283.006C275.086 287.007 277.333 292.433 277.333 298.091C277.333 304.619 291.435 319.424 314.667 319.424C337.451 319.424 352 305.408 352 298.091C352 292.433 354.248 287.007 358.248 283.006C362.249 279.005 367.675 276.757 373.333 276.757C378.991 276.757 384.418 279.005 388.418 283.006C392.419 287.007 394.667 292.433 394.667 298.091C394.667 304.619 408.768 319.424 432 319.424C455.232 319.424 469.333 304.619 469.333 298.091C469.299 269.811 458.051 242.7 438.054 222.703C418.057 202.707 390.946 191.458 362.667 191.424H277.333V144.832C289.769 140.436 300.542 132.304 308.179 121.551C315.817 110.797 319.945 97.9469 320 84.7574C315.42 57.5787 303.06 32.3103 284.416 12.0107C280.726 8.21033 276.31 5.18915 271.431 3.12608C266.552 1.06301 261.308 0 256.011 0C250.713 0 245.47 1.06301 240.591 3.12608C235.711 5.18915 231.296 8.21033 227.605 12.0107C208.947 32.3028 196.578 57.5737 192 84.7574C192.055 97.9469 196.183 110.797 203.821 121.551C211.458 132.304 222.231 140.436 234.667 144.832V191.424H149.333C121.054 191.458 93.9426 202.707 73.946 222.703C53.9495 242.7 42.7005 269.811 42.6667 298.091C42.6667 304.619 56.768 319.424 80 319.424ZM64 426.091H448C453.658 426.091 459.084 423.843 463.085 419.842C467.086 415.842 469.333 410.415 469.333 404.757V354.091C457.576 359.311 444.864 362.035 432 362.091C410.517 362.253 389.694 354.681 373.333 340.757C356.878 354.475 336.148 362.014 314.724 362.072C293.301 362.131 272.53 354.705 256 341.077C239.47 354.705 218.699 362.131 197.276 362.072C175.852 362.014 155.122 354.475 138.667 340.757C122.306 354.681 101.483 362.253 80 362.091C67.1362 362.035 54.4238 359.311 42.6667 354.091V404.757C42.6667 410.415 44.9143 415.842 48.9151 419.842C52.9158 423.843 58.342 426.091 64 426.091Z" fill="white"/>
</svg>
