<svg width="512" height="512" viewBox="0 0 512 512" fill="none" xmlns="http://www.w3.org/2000/svg">
<path d="M394.667 42.6667H384V32C384 14.3147 369.664 0 352 0C334.336 0 320 14.3147 320 32V42.6667H192V32C192 14.3147 177.664 0 160 0C142.336 0 128 14.3147 128 32V42.6667H117.333C52.6507 42.6667 0 95.296 0 160V394.667C0 459.371 52.6507 512 117.333 512H394.667C459.349 512 512 459.371 512 394.667V160C512 95.296 459.349 42.6667 394.667 42.6667ZM394.667 448H117.333C87.9147 448 64 424.064 64 394.667V192H448V394.667C448 424.064 424.085 448 394.667 448ZM380.693 255.445C392.768 268.331 392.107 288.597 379.221 300.672L290.133 384.171C276.779 397.547 258.027 405.333 238.101 405.333C218.176 405.333 199.403 397.568 185.28 383.445L132.416 332.331C119.701 320.043 119.381 299.797 131.669 287.083C143.957 274.411 164.224 274.069 176.917 286.336L230.165 337.835C233.28 340.928 236.437 341.333 238.08 341.333C239.723 341.333 242.901 340.928 245.632 338.219L335.467 253.995C348.352 241.899 368.576 242.56 380.693 255.445Z" fill="white"/>
</svg>
