<svg width="833" height="512" viewBox="0 0 833 512" fill="none" xmlns="http://www.w3.org/2000/svg">
<path d="M699.047 64L668.903 24.9173C662.898 17.1905 655.214 10.9316 646.432 6.61449C637.65 2.29742 628.001 0.0354783 618.215 0L535.783 0C525.998 0.0354783 516.348 2.29742 507.566 6.61449C498.784 10.9316 491.1 17.1905 485.095 24.9173L454.951 64H699.047Z" fill="white"/>
<path d="M576.999 384C624.128 384 662.333 345.795 662.333 298.667C662.333 251.539 624.128 213.333 576.999 213.333C529.871 213.333 491.666 251.539 491.666 298.667C491.666 345.795 529.871 384 576.999 384Z" fill="white"/>
<path d="M726.333 106.667H427.667C399.387 106.7 372.276 117.949 352.279 137.946C332.283 157.942 321.034 185.054 321 213.333L321 405.333C321.034 433.613 332.283 460.724 352.279 480.721C372.276 500.717 399.387 511.966 427.667 512H726.333C754.613 511.966 781.724 500.717 801.721 480.721C821.717 460.724 832.966 433.613 833 405.333V213.333C832.966 185.054 821.717 157.942 801.721 137.946C781.724 117.949 754.613 106.7 726.333 106.667ZM577 426.667C551.684 426.667 526.937 419.159 505.887 405.095C484.838 391.03 468.431 371.039 458.743 347.65C449.055 324.261 446.521 298.525 451.459 273.695C456.398 248.865 468.589 226.058 486.49 208.157C504.391 190.256 527.199 178.065 552.028 173.126C576.858 168.187 602.595 170.722 625.983 180.41C649.372 190.098 669.363 206.504 683.428 227.554C697.493 248.603 705 273.35 705 298.667C704.966 332.604 691.47 365.141 667.472 389.139C643.475 413.136 610.937 426.633 577 426.667Z" fill="white"/>
<path d="M220.917 258.417H140.583V178.083C140.583 172.757 138.467 167.649 134.701 163.882C130.935 160.116 125.826 158 120.5 158C115.174 158 110.065 160.116 106.299 163.882C102.533 167.649 100.417 172.757 100.417 178.083V258.417H20.0833C14.7569 258.417 9.64863 260.533 5.88228 264.299C2.11592 268.065 0 273.174 0 278.5C0 283.826 2.11592 288.935 5.88228 292.701C9.64863 296.467 14.7569 298.583 20.0833 298.583H100.417V378.917C100.417 384.243 102.533 389.351 106.299 393.118C110.065 396.884 115.174 399 120.5 399C125.826 399 130.935 396.884 134.701 393.118C138.467 389.351 140.583 384.243 140.583 378.917V298.583H220.917C226.243 298.583 231.351 296.467 235.118 292.701C238.884 288.935 241 283.826 241 278.5C241 273.174 238.884 268.065 235.118 264.299C231.351 260.533 226.243 258.417 220.917 258.417Z" fill="white"/>
</svg>
