<svg width="512" height="512" viewBox="0 0 512 512" fill="none" xmlns="http://www.w3.org/2000/svg">
<path d="M512 174.411V442.229C512 448.395 509.752 454.308 505.752 458.668C501.751 463.028 496.325 465.477 490.667 465.477C485.009 465.477 479.582 463.028 475.582 458.668C471.581 454.308 469.333 448.395 469.333 442.229V250.479L311.466 332.684C294.82 343.391 275.818 348.968 256.49 348.818C236.22 348.853 216.318 342.917 198.89 331.638L41.4489 249.967C29.073 242.715 18.7035 231.986 11.4162 218.893C4.12894 205.8 0.189511 190.821 0.00666809 175.509C-0.176175 160.197 3.40423 145.111 10.3764 131.816C17.3485 118.521 27.4584 107.502 39.6569 99.9007C40.2329 99.5288 40.8516 99.18 41.4489 98.8546L200.532 16.1377C217.707 5.38925 237.199 -0.17946 257.004 0.00441013C276.809 0.18828 296.211 6.11809 313.215 17.1839L470.549 98.8546C482.964 106.34 493.339 117.274 500.619 130.545C507.9 143.816 511.826 158.95 512 174.411ZM256.468 395.268C229.174 395.334 202.348 387.538 178.708 372.671L85.3318 324.106V386.876C85.3444 411.693 92.6355 435.857 106.141 455.84C119.646 475.823 138.659 490.58 160.404 497.955C191.473 507.676 223.678 512.399 255.999 511.974C288.325 512.369 320.53 507.614 351.594 497.862C373.339 490.487 392.352 475.73 405.857 455.747C419.363 435.764 426.654 411.6 426.666 386.783V324.222L331.541 373.74C308.706 388.036 282.802 395.481 256.468 395.315V395.268Z" fill="white"/>
</svg>
