<svg width="512" height="512" viewBox="0 0 512 512" fill="none" xmlns="http://www.w3.org/2000/svg">
<path d="M511.494 512H255.878C205.937 511.977 157.093 497.345 115.362 469.908C73.6321 442.473 40.838 403.43 21.0198 357.589C1.20143 311.748 -4.77571 261.111 3.82455 211.915C12.4248 162.72 35.2267 117.114 69.4221 80.7157C103.617 44.317 147.712 18.7156 196.276 7.06429C244.839 -4.58699 295.751 -1.77911 342.738 15.1421C389.726 32.0631 430.737 62.3587 460.723 102.297C490.706 142.235 508.356 190.072 511.494 239.915V241.259V512ZM255.878 42.6667C199.299 42.6667 145.037 65.1429 105.029 105.151C65.0211 145.158 42.5449 199.421 42.5449 256C42.5449 312.579 65.0211 366.842 105.029 406.849C145.037 446.857 199.299 469.333 255.878 469.333H468.827V241.941C465.169 187.932 441.153 137.323 401.627 100.335C362.101 63.3478 310.01 42.7375 255.878 42.6667Z" fill="white"/>
<path d="M276.833 149.333H148.833V192H276.833V149.333Z" fill="white"/>
<path d="M362.166 234.667H148.833V277.334H362.166V234.667Z" fill="white"/>
<path d="M362.166 320H148.833V362.667H362.166V320Z" fill="white"/>
</svg>
