<svg width="512" height="513" viewBox="0 0 512 513" fill="none" xmlns="http://www.w3.org/2000/svg">
<path d="M419.308 58.9055C392.278 36.4128 360.883 19.7623 327.101 10.0031C293.318 0.243872 257.88 -2.41245 223.02 2.20149C158.531 10.5795 99.6468 43.1865 58.3249 93.4017C17.003 143.617 -3.65952 207.676 0.532919 272.572C4.72536 337.468 33.4585 398.336 80.898 442.817C128.337 487.298 190.927 512.058 255.959 512.068H404.908C433.187 512.034 460.299 500.785 480.295 480.789C500.292 460.792 511.541 433.681 511.575 405.402V241.327V239.983C509.317 205.112 499.97 171.069 484.105 139.934C468.241 108.799 446.192 81.2278 419.308 58.9055ZM170.241 149.401H255.575C261.233 149.401 266.659 151.649 270.659 155.65C274.66 159.651 276.908 165.077 276.908 170.735C276.908 176.393 274.66 181.819 270.659 185.82C266.659 189.821 261.233 192.068 255.575 192.068H170.241C164.583 192.068 159.157 189.821 155.156 185.82C151.155 181.819 148.908 176.393 148.908 170.735C148.908 165.077 151.155 159.651 155.156 155.65C159.157 151.649 164.583 149.401 170.241 149.401ZM340.908 362.735H170.241C164.583 362.735 159.157 360.487 155.156 356.486C151.155 352.486 148.908 347.059 148.908 341.401C148.908 335.744 151.155 330.317 155.156 326.317C159.157 322.316 164.583 320.068 170.241 320.068H340.908C346.566 320.068 351.992 322.316 355.993 326.317C359.994 330.317 362.241 335.744 362.241 341.401C362.241 347.059 359.994 352.486 355.993 356.486C351.992 360.487 346.566 362.735 340.908 362.735ZM340.908 277.401H170.241C164.583 277.401 159.157 275.154 155.156 271.153C151.155 267.152 148.908 261.726 148.908 256.068C148.908 250.41 151.155 244.984 155.156 240.983C159.157 236.982 164.583 234.735 170.241 234.735H340.908C346.566 234.735 351.992 236.982 355.993 240.983C359.994 244.984 362.241 250.41 362.241 256.068C362.241 261.726 359.994 267.152 355.993 271.153C351.992 275.154 346.566 277.401 340.908 277.401Z" fill="white"/>
</svg>
