<svg width="513" height="513" viewBox="0 0 513 513" fill="none" xmlns="http://www.w3.org/2000/svg">
<path d="M512.024 240.448C508.939 190.528 491.313 142.603 461.319 102.58C431.325 62.5566 390.275 32.1855 343.229 15.2106C296.183 -1.7643 245.197 -4.60086 196.559 7.0506C147.92 18.7021 103.754 44.3322 69.5057 80.7812C35.2574 117.23 12.4239 162.905 3.82017 212.174C-4.78353 261.443 1.21867 312.153 21.0868 358.053C40.955 403.952 73.8205 443.034 115.632 470.48C157.443 497.926 206.372 512.538 256.387 512.512H405.357C433.639 512.484 460.753 501.237 480.751 481.239C500.749 461.241 511.996 434.126 512.024 405.845V240.448ZM469.357 405.845C469.357 422.819 462.615 439.098 450.612 451.1C438.61 463.103 422.331 469.845 405.357 469.845H256.387C226.284 469.832 196.522 463.474 169.042 451.185C141.561 438.897 116.979 420.955 96.8988 398.528C76.7211 376.113 61.5693 349.642 52.4591 320.891C43.349 292.141 40.4912 261.775 44.0774 231.829C49.74 184.596 70.9614 140.591 104.396 106.75C137.831 72.9101 181.577 51.1597 228.739 44.928C237.938 43.775 247.2 43.1908 256.472 43.1787C306.189 43.0431 354.367 60.414 392.557 92.2454C414.862 110.783 433.17 133.657 446.371 159.48C459.573 185.304 467.393 213.539 469.357 242.475V405.845Z" fill="white"/>
<path d="M170.691 192.512H256.024C261.682 192.512 267.108 190.265 271.109 186.264C275.11 182.263 277.357 176.837 277.357 171.179C277.357 165.521 275.11 160.095 271.109 156.094C267.108 152.093 261.682 149.846 256.024 149.846H170.691C165.033 149.846 159.607 152.093 155.606 156.094C151.605 160.095 149.357 165.521 149.357 171.179C149.357 176.837 151.605 182.263 155.606 186.264C159.607 190.265 165.033 192.512 170.691 192.512Z" fill="white"/>
<path d="M341.357 235.179H170.691C165.033 235.179 159.607 237.426 155.606 241.427C151.605 245.428 149.357 250.854 149.357 256.512C149.357 262.17 151.605 267.596 155.606 271.597C159.607 275.598 165.033 277.845 170.691 277.845H341.357C347.015 277.845 352.442 275.598 356.442 271.597C360.443 267.596 362.691 262.17 362.691 256.512C362.691 250.854 360.443 245.428 356.442 241.427C352.442 237.426 347.015 235.179 341.357 235.179Z" fill="white"/>
<path d="M341.357 320.512H170.691C165.033 320.512 159.607 322.76 155.606 326.761C151.605 330.761 149.357 336.188 149.357 341.846C149.357 347.503 151.605 352.93 155.606 356.931C159.607 360.931 165.033 363.179 170.691 363.179H341.357C347.015 363.179 352.442 360.931 356.442 356.931C360.443 352.93 362.691 347.503 362.691 341.846C362.691 336.188 360.443 330.761 356.442 326.761C352.442 322.76 347.015 320.512 341.357 320.512Z" fill="white"/>
</svg>
