<svg width="512" height="512" viewBox="0 0 512 512" fill="none" xmlns="http://www.w3.org/2000/svg">
<g clip-path="url(#clip0_121_79)">
<path d="M405.333 0H106.667C47.8507 0 0 47.8507 0 106.667V405.333C0 464.149 47.8507 512 106.667 512H405.333C464.149 512 512 464.149 512 405.333V106.667C512 47.8507 464.149 0 405.333 0ZM155.584 271.04L210.688 326.144C219.029 334.485 219.029 347.968 210.688 356.309C206.528 360.469 201.067 362.56 195.605 362.56C190.144 362.56 184.683 360.469 180.523 356.309L125.419 301.205C113.323 289.131 106.667 273.045 106.667 255.936C106.667 238.827 113.323 222.763 125.419 210.667L180.523 155.563C188.864 147.221 202.347 147.221 210.688 155.563C219.029 163.904 219.029 177.387 210.688 185.728L155.584 240.832C151.552 244.864 149.333 250.219 149.333 255.915C149.333 261.611 151.552 267.008 155.584 271.04ZM386.581 301.312L331.477 356.416C327.317 360.576 321.856 362.667 316.395 362.667C310.933 362.667 305.472 360.576 301.312 356.416C292.971 348.075 292.971 334.592 301.312 326.251L356.416 271.147C360.427 267.115 362.667 261.76 362.667 256.043C362.667 250.325 360.448 244.992 356.416 240.96L301.312 185.835C292.971 177.493 292.971 163.989 301.312 155.669C309.653 147.328 323.136 147.328 331.477 155.669L386.581 210.773C398.656 222.848 405.333 238.933 405.333 256.021C405.333 273.109 398.677 289.216 386.581 301.312Z" fill="white"/>
</g>
<defs>
<clipPath id="clip0_121_79">
<rect width="512" height="512" fill="white"/>
</clipPath>
</defs>
</svg>
