<svg width="512" height="453" viewBox="0 0 512 453" fill="none" xmlns="http://www.w3.org/2000/svg">
<path d="M458.667 172.849C436.8 172.849 418.069 186.033 409.835 204.849H338.304C334.549 190.406 327.317 177.414 317.248 167.004C326.848 151.345 341.653 127.174 354.517 106.14C374.869 108.934 395.904 99.8462 407.317 81.2009C422.699 56.0915 414.805 23.2382 389.696 7.85685C364.587 -7.52448 331.733 0.368851 316.352 25.4995C304.939 44.1449 306.389 67.0142 318.144 83.8675C305.195 105.009 290.325 129.308 280.747 144.945C272.853 142.534 264.661 140.849 256 140.849C247.339 140.849 239.147 142.534 231.253 144.945C221.675 129.308 206.784 105.009 193.856 83.8675C205.611 67.0142 207.061 44.1449 195.648 25.4995C180.267 0.390183 147.435 -7.52448 122.304 7.85685C97.1733 23.2382 89.28 56.0702 104.683 81.2009C116.096 99.8462 137.131 108.934 157.483 106.14C170.368 127.174 185.173 151.345 194.752 167.004C184.683 177.414 177.451 190.428 173.696 204.849H102.165C93.9307 186.033 75.2 172.849 53.3333 172.849C23.872 172.849 0 196.721 0 226.182C0 255.644 23.872 279.516 53.3333 279.516C75.2 279.516 93.9307 266.332 102.165 247.516H173.696C177.451 261.958 184.683 274.95 194.752 285.361L157.483 346.225C137.131 343.409 116.096 352.518 104.683 371.164C89.3013 396.273 97.1947 429.126 122.304 444.508C147.413 459.889 180.267 451.996 195.648 426.886C207.061 408.241 205.611 385.393 193.856 368.54L231.275 307.462C239.147 309.873 247.339 311.558 256 311.558C264.661 311.558 272.853 309.873 280.725 307.462L318.144 368.54C306.389 385.393 304.939 408.262 316.352 426.886C331.733 451.996 364.565 459.889 389.696 444.508C414.827 429.126 422.72 396.294 407.317 371.164C395.904 352.518 374.869 343.43 354.517 346.225L317.248 285.361C327.317 274.95 334.549 261.937 338.304 247.516H409.835C418.069 266.332 436.8 279.516 458.667 279.516C488.128 279.516 512 255.644 512 226.182C512 196.721 488.128 172.849 458.667 172.849Z" fill="white"/>
</svg>
