<svg width="427" height="512" viewBox="0 0 427 512" fill="none" xmlns="http://www.w3.org/2000/svg">
<path d="M277.333 341.333H416.853C409.451 360.811 398.08 378.731 382.912 393.899L308.587 468.267C293.397 483.435 275.477 494.805 256 502.187V362.667C256 350.912 265.557 341.333 277.333 341.333ZM426.667 106.667V288.32C426.667 291.797 426.389 295.232 426.155 298.667H277.333C242.048 298.667 213.333 327.381 213.333 362.667V511.488C209.899 511.723 206.464 512 202.987 512H106.667C47.8507 512 0 464.149 0 405.333V106.667C0 47.8507 47.8507 0 106.667 0H320C378.816 0 426.667 47.8507 426.667 106.667ZM96.576 181.333V117.333C96.576 106.752 105.195 98.1333 115.776 98.1333C124.48 98.1333 131.84 103.936 134.187 111.893C134.699 113.621 134.763 128 151.957 128C169.152 128 169.344 113.088 169.109 111.019C165.995 84.544 143.104 64 115.776 64C86.3147 64 62.4427 87.872 62.4427 117.333V181.333C62.4427 210.795 86.3147 234.667 115.776 234.667C143.04 234.667 165.909 214.229 169.109 187.819C169.365 185.685 168.427 170.667 152.064 170.667C135.701 170.667 134.72 184.939 134.251 186.603C131.947 194.624 124.544 200.533 115.776 200.533C105.195 200.533 96.576 191.915 96.576 181.333ZM298.325 89.8987C300.459 79.3387 292.373 69.4613 281.6 69.4613C273.472 69.4613 266.475 75.1787 264.875 83.1573L242.411 194.56C242.091 196.224 241.621 197.568 241.195 198.571C240.789 197.696 240.384 196.565 240.128 195.179L217.259 83.1147C215.637 75.1787 208.64 69.4613 200.533 69.4613C189.739 69.4613 181.653 79.36 183.808 89.9413L206.677 202.005C208.981 213.973 215.68 224.277 225.024 230.016C230.08 233.109 235.605 234.667 241.195 234.667C245.995 234.667 250.837 233.515 255.424 231.211C265.557 226.133 273.237 214.869 275.925 201.088L298.347 89.92L298.325 89.8987Z" fill="white"/>
</svg>
