<svg width="512" height="512" viewBox="0 0 512 512" fill="none" xmlns="http://www.w3.org/2000/svg">
<path d="M320 64V448C320 483.413 291.413 512 256 512C220.587 512 192 483.413 192 448V64C192 28.5867 220.587 0 256 0C291.413 0 320 28.5867 320 64ZM448 128C412.587 128 384 156.587 384 192V448C384 483.413 412.587 512 448 512C483.413 512 512 483.413 512 448V192C512 156.587 483.413 128 448 128ZM64 256C28.5867 256 0 284.587 0 320V448C0 483.413 28.5867 512 64 512C99.4133 512 128 483.413 128 448V320C128 284.587 99.4133 256 64 256Z" fill="white"/>
</svg>
