<svg width="512" height="512" viewBox="0 0 512 512" fill="none" xmlns="http://www.w3.org/2000/svg">
<path d="M158.165 511.232C76.2453 506.411 0 476.053 0 422.101V401.621C31.4027 423.957 78.2933 439.637 133.867 445.419C134.784 457.045 135.659 466.603 136.128 471.531C137.707 487.36 145.813 501.419 158.165 511.232ZM181.333 298.667C285.12 298.667 362.667 260.011 362.667 225.429V179.2C322.645 213.248 257.707 234.667 181.333 234.667C104.96 234.667 40.0213 213.248 0 179.2V225.429C0 260.011 77.5467 298.667 181.333 298.667ZM131.136 402.133C130.304 383.509 130.091 365.888 131.413 355.648C132.181 349.845 133.653 344.299 135.424 338.901C79.168 333.248 31.7013 317.504 0 294.955V332.075C0 360.789 53.568 392.277 131.136 402.133ZM181.333 192C281.472 192 362.667 149.013 362.667 96C362.667 42.9867 281.472 0 181.333 0C81.1947 0 0 42.9867 0 96C0 149.013 81.1947 192 181.333 192ZM494.891 456.619C478.805 456.619 466.496 456.619 466.496 456.619V337.131C466.496 327.701 458.859 320.064 449.429 320.064C440 320.064 432.363 327.701 432.363 337.131V473.685C432.363 483.115 440 490.752 449.429 490.752H494.933C504.363 490.752 512 483.115 512 473.685C512 464.256 504.32 456.619 494.891 456.619ZM240.811 391.445C228.864 386.603 217.707 381.483 211.712 378.752C209.621 377.792 202.581 375.061 202.475 365.632C202.432 362.837 204.672 356.224 213.461 353.323C222.571 350.379 231.189 352.341 237.696 355.2C244.181 358.037 251.755 356.011 256.085 350.421C262.016 342.763 259.605 331.52 250.965 327.125C239.253 321.195 222.976 316.907 205.099 322.795C188.117 328.384 176.128 343.061 173.76 361.067C171.499 378.496 178.667 394.411 193.408 404.736C193.472 404.736 211.285 413.461 230.784 421.355C235.349 423.189 250.069 430.08 248.192 441.792C246.805 450.133 237.717 458.731 224.832 458.731C216.704 458.731 208.789 456.469 202.048 452.395C195.968 448.725 188.16 449.728 183.125 454.763C176.107 461.76 177.387 473.387 185.664 478.869C197.141 486.464 210.709 490.624 224.853 490.624C250.88 490.624 272.704 472.448 276.779 447.403C279.829 428.608 272 404.011 240.875 391.403L240.811 391.445ZM408.875 470.144C415.531 476.8 415.531 487.616 408.875 494.272C402.219 500.928 391.403 500.928 384.747 494.272L375.509 485.035C365.845 489.813 354.752 492.096 342.72 489.856C316.928 485.077 298.667 461.824 298.667 435.605V373.376C298.667 344.256 321.984 320.597 350.976 320.043C380.864 319.467 405.333 344.661 405.333 374.571V437.376C405.333 445.867 403.179 453.781 399.637 460.885L408.875 470.144ZM371.2 373.397C371.2 362.816 362.581 354.197 352 354.197C341.419 354.197 332.8 362.816 332.8 373.397V437.397C332.8 447.979 341.419 456.597 352 456.597C362.581 456.597 371.2 447.979 371.2 437.397V373.397Z" fill="white"/>
</svg>
