<svg width="512" height="512" viewBox="0 0 512 512" fill="none" xmlns="http://www.w3.org/2000/svg">
<path d="M405.333 0H106.667C47.8507 0 0 47.8507 0 106.667V405.333C0 464.149 47.8507 512 106.667 512H405.333C464.149 512 512 464.149 512 405.333V106.667C512 47.8507 464.149 0 405.333 0ZM215.915 301.248L129.707 387.456C125.547 391.616 120.085 393.707 114.624 393.707C109.163 393.707 103.701 391.616 99.5413 387.456C91.2 379.115 91.2 365.632 99.5413 357.291L185.749 271.083C194.069 262.763 194.069 249.237 185.749 240.917L99.5627 154.709C91.2213 146.368 91.2213 132.885 99.5627 124.544C107.904 116.203 121.387 116.203 129.728 124.544L215.936 210.752C240.896 235.712 240.875 276.288 215.915 301.248ZM405.333 384H256C244.224 384 234.667 374.464 234.667 362.667C234.667 350.869 244.224 341.333 256 341.333H405.333C417.131 341.333 426.667 350.869 426.667 362.667C426.667 374.464 417.131 384 405.333 384Z" fill="white"/>
</svg>
