<svg width="512" height="399" viewBox="0 0 512 399" fill="none" xmlns="http://www.w3.org/2000/svg">
<path d="M255.988 284.603C303.099 284.603 341.29 246.412 341.29 199.301C341.29 152.191 303.099 114 255.988 114C208.878 114 170.688 152.191 170.688 199.301C170.688 246.412 208.878 284.603 255.988 284.603Z" fill="white"/>
<path d="M496.358 144.245C463.283 90.3774 388.047 0 256 0C123.953 0 48.7164 90.3774 15.6407 144.245C-5.21357 177.976 -5.21357 220.596 15.6407 254.327C48.7164 308.195 123.953 398.572 256 398.572C388.047 398.572 463.283 308.195 496.358 254.327C517.214 220.596 517.214 177.976 496.358 144.245ZM256 327.238C185.334 327.238 128.047 269.952 128.047 199.286C128.047 128.62 185.334 71.3335 256 71.3335C326.665 71.3335 383.952 128.62 383.952 199.286C383.881 269.923 326.636 327.168 256 327.238Z" fill="white"/>
</svg>
