<svg width="512" height="470" viewBox="0 0 512 470" fill="none" xmlns="http://www.w3.org/2000/svg">
<path d="M496.359 179.212C477.107 147.687 452.823 119.527 424.471 95.8512L484.182 36.1403C492.364 27.6685 492.129 14.1685 483.657 5.98653C475.393 -1.99551 462.291 -1.99551 454.027 5.98653L389.091 71.0074C348.837 47.0983 302.817 34.6359 255.999 34.9678C123.973 34.9678 48.7374 125.345 15.6407 179.213C-5.21357 212.944 -5.21357 255.564 15.6407 289.295C34.8926 320.821 59.1765 348.98 87.529 372.656L27.8182 432.367C19.3463 440.549 19.1114 454.05 27.2934 462.521C35.4753 470.993 48.9763 471.228 57.4472 463.046C57.6251 462.874 57.8 462.699 57.972 462.521L123.057 397.436C163.261 421.342 209.226 433.825 255.999 433.54C388.025 433.54 463.262 343.162 496.358 289.294C517.214 255.564 517.214 212.944 496.359 179.212ZM128.048 234.254C127.927 163.705 185.019 106.416 255.568 106.295C282.261 106.249 308.298 114.567 330.021 130.079L299.056 161.044C286.057 153.205 271.18 149.026 256 148.952C208.89 148.952 170.699 187.143 170.699 234.254C170.773 249.433 174.952 264.311 182.791 277.31L151.826 308.274C136.364 286.689 128.049 260.805 128.048 234.254ZM256 362.206C229.449 362.205 203.565 353.89 181.98 338.428L212.944 307.464C225.944 315.303 240.821 319.481 256 319.555C303.111 319.555 341.302 281.364 341.302 234.254C341.228 219.074 337.049 204.197 329.21 191.198L360.175 160.233C401.173 217.646 387.867 297.424 330.454 338.422C308.731 353.934 282.694 362.252 256 362.206Z" fill="white"/>
</svg>
