<svg width="512" height="512" viewBox="0 0 512 512" fill="none" xmlns="http://www.w3.org/2000/svg">
<path d="M497.493 87.4667C485.333 72.5333 467.2 64 448 64H154.453L153.6 56.5333C149.76 24.32 122.453 0 90.0267 0H64C52.2667 0 42.6667 9.6 42.6667 21.3333C42.6667 33.0667 52.2667 42.6667 64 42.6667H90.0267C100.907 42.6667 109.867 50.7733 111.147 61.44L140.587 311.04C146.987 364.8 192.427 405.333 246.613 405.333H426.667C438.4 405.333 448 395.733 448 384C448 372.267 438.4 362.667 426.667 362.667H246.613C219.093 362.667 195.413 344.96 186.453 320H387.413C438.187 320 482.133 283.947 491.947 234.24L510.72 140.587C514.56 121.813 509.653 102.4 497.493 87.4667ZM234.667 469.333C234.667 492.8 215.467 512 192 512C168.533 512 149.333 492.8 149.333 469.333C149.333 445.867 168.533 426.667 192 426.667C215.467 426.667 234.667 445.867 234.667 469.333ZM426.667 469.333C426.667 492.8 407.467 512 384 512C360.533 512 341.333 492.8 341.333 469.333C341.333 445.867 360.533 426.667 384 426.667C407.467 426.667 426.667 445.867 426.667 469.333ZM0 128C0 116.267 9.6 106.667 21.3333 106.667H54.1867C65.92 106.667 75.52 116.267 75.52 128C75.52 139.733 65.92 149.333 54.1867 149.333H21.3333C9.6 149.333 0 139.733 0 128ZM0 213.333C0 201.6 9.6 192 21.3333 192H64C75.7333 192 85.3333 201.6 85.3333 213.333C85.3333 225.067 75.7333 234.667 64 234.667H21.3333C9.6 234.667 0 225.067 0 213.333ZM106.667 298.667C106.667 310.4 97.0667 320 85.3333 320H21.3333C9.6 320 0 310.4 0 298.667C0 286.933 9.6 277.333 21.3333 277.333H85.3333C97.0667 277.333 106.667 286.933 106.667 298.667Z" fill="white"/>
</svg>
