<svg width="427" height="512" viewBox="0 0 427 512" fill="none" xmlns="http://www.w3.org/2000/svg">
<path d="M426.667 213.333C425.712 253.876 415.626 293.682 397.158 329.787C378.69 365.891 352.316 397.366 320 421.867V490.667C320 496.325 317.752 501.751 313.752 505.752C309.751 509.752 304.325 512 298.667 512C293.009 512 287.583 509.752 283.582 505.752C279.581 501.751 277.333 496.325 277.333 490.667V42.6667C277.142 34.6509 279.332 26.7585 283.627 19.9878C287.922 13.2171 294.128 7.87223 301.461 4.62933C309.885 1.20246 319.124 0.303577 328.05 2.04254C336.976 3.78151 345.202 8.083 351.723 14.4213C401.202 68.7137 428.019 139.889 426.667 213.333ZM192 0C186.342 0 180.916 2.24761 176.915 6.24839C172.914 10.2492 170.667 15.6754 170.667 21.3333V149.333C170.612 162.523 166.484 175.373 158.846 186.127C151.209 196.88 140.435 205.012 128 209.408V21.3333C128 15.6754 125.752 10.2492 121.752 6.24839C117.751 2.24761 112.325 0 106.667 0C101.009 0 95.5825 2.24761 91.5817 6.24839C87.581 10.2492 85.3333 15.6754 85.3333 21.3333V209.408C72.898 205.012 62.1246 196.88 54.4872 186.127C46.8498 175.373 42.7213 162.523 42.6667 149.333V21.3333C42.6667 15.6754 40.4191 10.2492 36.4183 6.24839C32.4175 2.24761 26.9913 0 21.3333 0C15.6754 0 10.2492 2.24761 6.24839 6.24839C2.24761 10.2492 0 15.6754 0 21.3333V149.333C0.0310299 173.914 8.53526 197.732 24.0793 216.773C39.6234 235.815 61.2568 248.915 85.3333 253.867V490.667C85.3333 496.325 87.581 501.751 91.5817 505.752C95.5825 509.752 101.009 512 106.667 512C112.325 512 117.751 509.752 121.752 505.752C125.752 501.751 128 496.325 128 490.667V253.867C152.077 248.915 173.71 235.815 189.254 216.773C204.798 197.732 213.302 173.914 213.333 149.333V21.3333C213.333 15.6754 211.086 10.2492 207.085 6.24839C203.084 2.24761 197.658 0 192 0Z" fill="white"/>
</svg>
