<svg width="470" height="470" viewBox="0 0 470 470" fill="none" xmlns="http://www.w3.org/2000/svg">
<path d="M234.667 0C133.931 0 0 24.32 0 234.667C0 442.667 125.397 469.333 234.667 469.333C343.936 469.333 469.333 442.667 469.333 234.667C469.333 26.6667 343.936 0 234.667 0ZM234.432 362.667C195.328 362.667 154.688 354.347 149.76 292.565C148.843 280.832 157.589 270.549 169.344 269.611C181.269 268.779 191.36 277.44 192.299 289.195C194.24 313.792 199.403 320 234.432 320C268.352 320 276.971 315.883 276.971 278.101C276.971 242.453 265.365 230.997 229.205 230.997C217.664 230.997 199.659 234.197 193.749 235.691C182.933 238.4 167.808 230.464 167.851 214.848C167.936 168.704 176.128 134.891 176.491 133.483C177.92 127.68 181.76 122.731 187.008 119.872C188.843 118.869 232.96 95.5307 293.675 113.429C304.981 116.757 311.445 128.619 308.096 139.925C304.789 151.253 292.907 157.717 281.6 154.347C251.541 145.493 227.819 150.165 215.787 154.048C214.357 162.091 212.501 174.443 211.413 189.504C217.344 188.8 223.531 188.309 229.184 188.309C289.173 188.309 319.616 218.517 319.616 278.08C319.616 352.597 276.544 362.645 234.411 362.645L234.432 362.667Z" fill="white"/>
</svg>
