<svg width="470" height="470" viewBox="0 0 470 470" fill="none" xmlns="http://www.w3.org/2000/svg">
<path d="M219.327 184C195.242 214.123 186.41 244.437 183.188 262.037C193.044 264.341 207.21 266.688 224.02 266.688C235.775 266.688 246.506 266.112 256.02 265.237V155.285C245.119 160.043 231.679 168.619 219.348 184.021L219.327 184Z" fill="white"/>
<path d="M234.667 0C133.931 0 0 24.32 0 234.667C0 442.667 125.397 469.333 234.667 469.333C343.936 469.333 469.333 442.667 469.333 234.667C469.333 26.6667 343.936 0 234.667 0ZM315.84 297.643C315.243 297.835 309.205 299.733 298.667 301.952V341.333C298.667 353.109 289.109 362.667 277.333 362.667C265.557 362.667 256 353.109 256 341.333V308.032C246.272 308.821 235.563 309.333 224 309.333C182.165 309.333 153.088 297.557 151.872 297.067C143.872 293.781 138.667 285.973 138.667 277.333C138.667 274.859 139.2 215.851 186.005 157.333C225.067 108.48 274.709 106.709 276.8 106.667C282.539 106.261 288.107 108.693 292.224 112.725C296.341 116.736 298.667 122.24 298.667 128V258.155C301.355 257.472 302.805 257.024 302.869 257.003C314.133 253.504 326.08 259.691 329.621 270.891C333.184 282.091 327.019 294.059 315.84 297.643Z" fill="white"/>
</svg>
