<svg width="512" height="512" viewBox="0 0 512 512" fill="none" xmlns="http://www.w3.org/2000/svg">
<path fill-rule="evenodd" clip-rule="evenodd" d="M256 0C114.624 0 0 114.624 0 256C0 397.376 114.624 512 256 512C397.376 512 512 397.376 512 256C512 114.624 397.376 0 256 0ZM426.667 256C426.667 350.101 350.101 426.667 256 426.667C161.899 426.667 85.3333 350.101 85.3333 256C85.3333 161.899 161.899 85.3333 256 85.3333C294.016 85.3333 329.984 97.5573 360.021 120.704L320.363 172.224C301.781 157.909 279.531 150.357 256 150.357C197.739 150.357 150.357 197.76 150.357 256C150.357 314.24 197.76 361.643 256 361.643C302.912 361.643 342.784 330.901 356.544 288.491H256V223.467H426.667V255.979V256Z" fill="white"/>
</svg>
