<svg width="470" height="512" viewBox="0 0 470 512" fill="none" xmlns="http://www.w3.org/2000/svg">
<path d="M448 469.333H426.667V298.645C450.219 298.56 469.333 279.403 469.333 255.829C469.333 240.128 460.757 225.707 446.997 218.24L263.445 118.123C261.056 116.821 258.475 116.139 255.979 115.2V93.44L312.192 58.56C322.752 51.52 322.517 35.9467 311.765 29.2267L259.243 4.58667C254.443 1.57867 248.896 0 243.221 0C226.539 0 212.992 13.5253 212.992 30.2293V106.667H213.312V115.2C210.816 116.16 208.235 116.821 205.845 118.123L22.336 218.24C8.55466 225.728 0 240.107 0 255.829C0 279.403 19.136 298.56 42.6667 298.645V469.333H21.3333C9.55733 469.333 0 478.869 0 490.667C0 502.464 9.55733 512 21.3333 512H448C459.797 512 469.333 502.464 469.333 490.667C469.333 478.869 459.797 469.333 448 469.333ZM213.333 298.667V469.333H170.667V298.667H213.333ZM256 298.667H298.667V469.333H256V298.667ZM341.333 298.667H384V469.333H341.333V298.667ZM85.3333 298.667H128V469.333H85.3333V298.667Z" fill="white"/>
</svg>
