<svg width="512" height="512" viewBox="0 0 512 512" fill="none" xmlns="http://www.w3.org/2000/svg">
<path d="M256 341.333C239.123 341.333 222.624 336.328 208.591 326.952C194.558 317.575 183.621 304.248 177.162 288.655C170.704 273.063 169.014 255.905 172.307 239.352C175.599 222.799 183.726 207.594 195.66 195.66C207.594 183.726 222.799 175.599 239.352 172.306C255.905 169.013 273.063 170.703 288.656 177.162C304.248 183.621 317.576 194.558 326.952 208.591C336.328 222.624 341.333 239.122 341.333 256C341.333 278.631 332.343 300.336 316.34 316.339C300.337 332.343 278.632 341.333 256 341.333ZM121.237 341.333H21.3333C15.6754 341.333 10.2492 339.085 6.24837 335.084C2.24761 331.084 0 325.658 0 320C0.202151 289.367 11.3435 259.815 31.4145 236.673C51.4855 213.532 79.1654 198.324 109.461 193.792C112.982 193.299 116.57 193.693 119.899 194.939C123.228 196.185 126.193 198.243 128.525 200.927C130.857 203.61 132.481 206.833 133.25 210.304C134.018 213.775 133.908 217.383 132.928 220.8C129.659 232.247 128 244.094 128 256C128.006 274.981 132.278 293.718 140.501 310.826C142.048 314.074 142.748 317.659 142.538 321.25C142.327 324.84 141.212 328.319 139.296 331.363C137.38 334.407 134.726 336.917 131.58 338.66C128.434 340.403 124.898 341.323 121.301 341.333H121.237ZM362.667 512H149.333C143.675 512 138.249 509.751 134.248 505.752C130.248 501.749 128 496.322 128 490.666C128 456.72 141.486 424.163 165.49 400.156C189.495 376.152 222.052 362.666 256 362.666C289.948 362.666 322.505 376.152 346.51 400.156C370.514 424.163 384 456.72 384 490.666C384 496.322 381.752 501.749 377.752 505.752C373.751 509.751 368.325 512 362.667 512ZM384 170.666C367.123 170.666 350.624 165.662 336.591 156.285C322.558 146.909 311.621 133.581 305.162 117.989C298.704 102.396 297.014 85.2387 300.307 68.6854C303.599 52.1325 311.726 36.9276 323.66 24.9936C335.594 13.0595 350.799 4.9323 367.352 1.63969C383.905 -1.65291 401.061 0.0369719 416.654 6.49566C432.25 12.9543 445.574 23.8917 454.951 37.9247C464.329 51.9578 469.335 68.4559 469.335 85.3332C469.335 107.965 460.343 129.67 444.341 145.673C428.335 161.676 406.63 170.666 384 170.666ZM128 170.666C111.123 170.666 94.6243 165.662 80.5912 156.285C66.5584 146.909 55.6209 133.581 49.1622 117.989C42.7036 102.396 41.0136 85.2387 44.3065 68.6854C47.5991 52.1325 55.7261 36.9276 67.6604 24.9936C79.5943 13.0595 94.7992 4.9323 111.352 1.63969C127.905 -1.65291 145.063 0.0369719 160.656 6.49566C176.248 12.9543 189.575 23.8917 198.952 37.9247C208.328 51.9578 213.333 68.4559 213.333 85.3332C213.333 107.965 204.343 129.67 188.34 145.673C172.337 161.676 150.632 170.666 128 170.666ZM490.665 341.333H390.763C387.166 341.323 383.63 340.403 380.484 338.66C377.338 336.917 374.684 334.407 372.768 331.363C370.852 328.319 369.737 324.84 369.526 321.25C369.315 317.659 370.016 314.074 371.563 310.826C379.763 293.713 384.014 274.976 384 256C383.965 244.089 382.271 232.242 378.965 220.8C377.98 217.373 377.869 213.754 378.643 210.273C379.416 206.792 381.051 203.561 383.395 200.874C385.74 198.188 388.721 196.132 392.065 194.895C395.41 193.658 399.009 193.278 402.538 193.792C432.833 198.324 460.513 213.532 480.587 236.673C500.657 259.815 511.799 289.367 512 320C512 325.658 509.751 331.084 505.75 335.084C501.752 339.085 496.325 341.333 490.665 341.333Z" fill="white"/>
</svg>
