<svg width="512" height="470" viewBox="0 0 512 470" fill="none" xmlns="http://www.w3.org/2000/svg">
<path d="M482.091 334.69L307.605 206.327C352.341 167.031 372.757 138.402 359.851 81.9112C350.912 42.7859 319.851 11.7245 280.704 2.8072C248.341 -4.6168 215.061 2.84987 189.525 23.2445C163.968 43.6179 149.333 74.0179 149.333 106.679C149.333 124.365 163.648 138.679 181.333 138.679C199.019 138.679 213.333 124.365 213.333 106.679C213.333 93.6232 219.2 81.4419 229.419 73.2925C239.787 65.0152 252.907 62.0925 266.475 65.2285C281.557 68.6632 294.016 81.1219 297.451 96.2045C303.701 123.575 302.4 127.778 236.224 182.946L29.4613 335.031C11.008 349.09 0 371.341 0 394.53C0 435.789 33.5573 469.325 74.7947 469.325H437.184C478.443 469.325 511.979 435.767 511.979 394.53C511.979 371.341 500.949 349.09 482.069 334.711L482.091 334.69ZM437.205 405.325H74.7947C68.8427 405.325 64 400.482 64 394.53C64 391.181 65.6 387.981 67.8187 386.274L256 247.842L443.733 385.954C446.4 387.981 448 391.202 448 394.53C448 400.482 443.157 405.325 437.205 405.325Z" fill="white"/>
</svg>
