<svg width="512" height="512" viewBox="0 0 512 512" fill="none" xmlns="http://www.w3.org/2000/svg">
<path d="M476.359 296.241L465.671 290.694C468.088 279.087 469.297 267.479 469.297 256.021C469.297 244.563 468.088 232.956 465.671 221.349L476.359 215.801C510.342 198.198 522.096 159.003 502.545 128.405C493.09 113.576 477.781 102.95 459.438 98.5124C441.096 94.053 421.924 96.2934 405.478 104.807L394.813 110.333C374.883 94.9492 351.92 83.0432 327.108 75.1485V64.0107C327.108 28.7195 295.21 0 256.013 0C216.817 0 184.919 28.7195 184.919 64.0107V75.1485C160.107 83.0432 137.143 94.9705 117.213 110.333L106.549 104.807C90.1261 96.3147 70.978 94.053 52.5882 98.5124C34.2695 102.95 18.9605 113.576 9.50493 128.384C0.0256599 143.192 -2.46265 160.453 2.49027 176.968C7.41949 193.462 19.2212 207.245 35.6914 215.78L46.3793 221.306C43.9621 232.913 42.7535 244.521 42.7535 256C42.7535 267.479 43.9621 279.087 46.3793 290.694L35.6914 296.22C19.2212 304.755 7.44319 318.538 2.49027 335.032C-2.46265 351.547 0.0256591 368.808 9.48123 383.595C18.9368 398.424 34.2458 409.049 52.5882 413.488C70.978 417.968 90.1261 415.707 106.549 407.193L117.213 401.667C137.143 417.051 160.107 428.957 184.919 436.851V447.989C184.919 483.281 216.817 512 256.013 512C295.21 512 327.108 483.281 327.108 447.989V436.851C351.92 428.957 374.883 417.03 394.813 401.667L405.478 407.193C421.948 415.707 441.096 417.968 459.438 413.488C477.757 409.049 493.066 398.424 502.545 383.595C522.096 352.998 510.342 313.802 476.359 296.199V296.241ZM325.544 170.674C325.544 158.896 336.16 149.337 349.242 149.337C362.323 149.337 372.94 158.896 372.94 170.674V216.825C365.38 214.777 357.536 213.348 349.242 213.348C340.948 213.348 333.103 214.777 325.544 216.825V170.674ZM135.958 170.674C135.958 158.896 146.575 149.337 159.657 149.337C172.738 149.337 183.355 158.896 183.355 170.674V216.825C175.795 214.777 167.951 213.348 159.657 213.348C151.362 213.348 143.518 214.777 135.958 216.825V170.674ZM183.355 324.79V341.369C183.355 353.147 172.738 362.706 159.657 362.706C146.575 362.706 135.958 353.147 135.958 341.369V324.79C118.73 315.765 108.255 297.479 113.729 277.337C117.9 261.974 132.238 249.578 149.419 246.334C180.061 240.552 207.077 261.462 207.077 288.048C207.077 303.795 197.479 317.408 183.378 324.811L183.355 324.79ZM278.147 341.369C278.147 353.147 267.531 362.706 254.449 362.706C241.368 362.706 230.751 353.147 230.751 341.369V295.217C238.311 297.266 246.155 298.695 254.449 298.695C262.744 298.695 270.588 297.266 278.147 295.217V341.369ZM244.188 265.708C227.007 262.465 212.669 250.047 208.522 234.706C203.048 214.564 213.546 196.278 230.775 187.253V170.674C230.775 158.896 241.392 149.337 254.473 149.337C267.554 149.337 278.171 158.896 278.171 170.674V187.253C292.271 194.635 301.869 208.248 301.869 224.016C301.869 250.602 274.83 271.512 244.188 265.708ZM372.94 324.769V341.348C372.94 353.125 362.323 362.684 349.242 362.684C336.16 362.684 325.544 353.125 325.544 341.348V324.769C308.315 315.743 297.841 297.458 303.315 277.316C307.486 261.953 321.823 249.556 339.004 246.313C369.646 240.531 396.662 261.441 396.662 288.027C396.662 303.773 387.064 317.386 372.964 324.79L372.94 324.769Z" fill="white"/>
</svg>
