<svg width="470" height="466" viewBox="0 0 470 466" fill="none" xmlns="http://www.w3.org/2000/svg">
<path d="M445.155 321.774C443.214 321.284 416.035 314.542 369.806 308.804C368.163 286.169 367.096 260.782 367.096 233.049C367.096 204.036 368.291 177.518 370.083 154.03C407.545 159.022 429.113 164.334 429.518 164.42C432.121 165.081 459.576 171.033 468.344 141.188C472.952 125.465 462.286 106.692 445.176 102.361C443.342 101.892 418.894 95.833 377.081 90.329C381.731 58.4357 386.275 40.281 386.36 39.9184C390.712 22.809 380.387 5.37969 363.278 1.00636C346.19 -3.36697 328.761 6.9157 324.366 24.0464C323.918 25.753 318.521 47.1717 313.273 84.0144C289.635 82.393 263.31 81.3264 234.659 81.3264C206.307 81.3264 180.281 82.3504 156.899 83.929C161.187 56.0464 165.134 40.281 165.219 39.9397C169.571 22.8304 159.246 5.40103 142.137 1.02769C125.006 -3.34564 107.619 6.93703 103.225 24.0677C102.755 25.8597 96.7392 49.689 91.2352 90.457C49.8912 95.9397 25.8912 101.956 24.0779 102.425C6.96854 106.798 -3.35679 124.206 0.995209 141.316C5.34721 158.425 22.7765 168.814 39.8645 164.441C40.2059 164.356 56.1845 160.388 84.5792 156.1C82.9792 179.289 81.9552 205.081 81.9552 233.092C81.9552 261.422 83.0005 287.428 84.6219 310.766C47.3312 315.993 25.7845 321.39 24.0779 321.817C6.96854 326.19 -3.35679 343.598 0.995209 360.708C5.34721 377.817 22.7765 388.249 39.8645 383.833C40.2272 383.748 58.6165 379.182 91.0219 374.553C96.5899 416.196 102.755 440.388 103.225 442.18C106.958 456.601 121.635 469.166 142.201 465.113C159.523 461.7 169.593 443.246 165.198 426.137C165.091 425.753 159.779 404.633 154.745 367.684C178.446 365.913 205.241 364.74 234.659 364.74C262.649 364.74 288.355 365.828 311.267 367.47C317.049 413.444 323.897 440.281 324.387 442.18C328.121 456.601 342.755 468.996 363.363 465.113C380.729 461.849 390.755 443.246 386.36 426.137C386.275 425.774 381.582 407.172 376.846 374.382C410.126 379.076 429.155 383.769 429.539 383.854C432.142 384.516 459.875 390.19 468.366 360.622C473.251 343.662 462.307 326.126 445.198 321.796L445.155 321.774ZM234.638 300.718C202.787 300.718 173.838 301.998 148.302 303.94C146.851 282.564 145.934 258.82 145.934 233.07C145.934 201.838 147.321 173.465 149.347 148.697C174.329 146.692 202.979 145.326 234.638 145.326C260.643 145.326 284.665 146.265 306.318 147.716C304.377 173.017 303.075 201.646 303.075 233.07C303.075 258.265 303.907 281.604 305.209 302.873C283.683 301.55 260.067 300.718 234.617 300.718H234.638Z" fill="white"/>
</svg>
