<svg width="512" height="427" viewBox="0 0 512 427" fill="none" xmlns="http://www.w3.org/2000/svg">
<path d="M106.348 426.667C117.664 426.667 128.516 422.171 136.518 414.17C144.519 406.168 149.015 395.316 149.015 384V256C149.015 244.684 144.519 233.832 136.518 225.83C128.516 217.829 117.664 213.333 106.348 213.333V192C106.348 152.394 122.081 114.411 150.087 86.4054C178.092 58.3999 216.076 42.6667 255.681 42.6667C295.287 42.6667 333.27 58.3999 361.276 86.4054C389.281 114.411 405.015 152.394 405.015 192V213.333C393.699 213.333 382.846 217.829 374.845 225.83C366.843 233.832 362.348 244.684 362.348 256V384H298.348C292.69 384 287.264 386.248 283.263 390.248C279.262 394.249 277.015 399.675 277.015 405.333C277.015 410.991 279.262 416.418 283.263 420.418C287.264 424.419 292.69 426.667 298.348 426.667H405.015C429.463 426.594 453.144 418.124 472.094 402.676C491.043 387.228 504.111 365.74 509.109 341.808C514.108 317.876 510.733 292.953 499.551 271.212C488.368 249.471 470.057 232.231 447.681 222.379V192C447.681 141.078 427.453 92.2425 391.446 56.2355C355.439 20.2285 306.603 0 255.681 0C204.76 0 155.924 20.2285 119.917 56.2355C83.9097 92.2425 63.6812 141.078 63.6812 192V222.379C41.306 232.231 22.9943 249.471 11.8118 271.212C0.629348 292.953 -2.7452 317.876 2.25313 341.808C7.25146 365.74 20.3193 387.228 39.2689 402.676C58.2185 418.124 81.8996 426.594 106.348 426.667Z" fill="white"/>
</svg>
