<svg width="512" height="470" viewBox="0 0 512 470" fill="none" xmlns="http://www.w3.org/2000/svg">
<path d="M405.333 85.3333H341.333V64C341.333 47.0261 334.591 30.7475 322.588 18.7452C310.586 6.74284 294.307 0 277.333 0H234.667C217.693 0 201.414 6.74284 189.412 18.7452C177.41 30.7475 170.667 47.0261 170.667 64V85.3333H106.667C78.3873 85.3672 51.2759 96.6162 31.2794 116.613C11.2828 136.609 0.0338743 163.721 0 192L0 362.667C0.0338743 390.946 11.2828 418.057 31.2794 438.054C51.2759 458.051 78.3873 469.299 106.667 469.333H405.333C433.613 469.299 460.724 458.051 480.721 438.054C500.717 418.057 511.966 390.946 512 362.667V192C511.966 163.721 500.717 136.609 480.721 116.613C460.724 96.6162 433.613 85.3672 405.333 85.3333ZM213.333 64C213.333 58.342 215.581 52.9158 219.582 48.9151C223.583 44.9143 229.009 42.6667 234.667 42.6667H277.333C282.991 42.6667 288.418 44.9143 292.418 48.9151C296.419 52.9158 298.667 58.342 298.667 64V85.3333H213.333V64ZM320 298.667H277.333V341.333C277.333 346.991 275.086 352.418 271.085 356.418C267.084 360.419 261.658 362.667 256 362.667C250.342 362.667 244.916 360.419 240.915 356.418C236.914 352.418 234.667 346.991 234.667 341.333V298.667H192C186.342 298.667 180.916 296.419 176.915 292.418C172.914 288.418 170.667 282.991 170.667 277.333C170.667 271.675 172.914 266.249 176.915 262.248C180.916 258.248 186.342 256 192 256H234.667V213.333C234.667 207.675 236.914 202.249 240.915 198.248C244.916 194.248 250.342 192 256 192C261.658 192 267.084 194.248 271.085 198.248C275.086 202.249 277.333 207.675 277.333 213.333V256H320C325.658 256 331.084 258.248 335.085 262.248C339.086 266.249 341.333 271.675 341.333 277.333C341.333 282.991 339.086 288.418 335.085 292.418C331.084 296.419 325.658 298.667 320 298.667Z" fill="white"/>
</svg>
