<svg width="512" height="470" viewBox="0 0 512 470" fill="none" xmlns="http://www.w3.org/2000/svg">
<path d="M490.667 341.333H21.3333C9.55733 341.333 0 350.891 0 362.667C0 374.443 9.55733 384 21.3333 384H31.5093C64 416 128 469.333 256 469.333C384 469.333 448 416 480.491 384H490.667C502.443 384 512 374.443 512 362.667C512 350.891 502.443 341.333 490.667 341.333ZM192 298.667V64C192 28.6507 220.651 0 256 0C291.349 0 320 28.6507 320 64V298.667H192ZM149.333 298.667H21.3333V246.443C21.3333 159.104 72.192 80.704 149.333 42.0907V298.688V298.667ZM490.667 246.443V298.667H362.667V42.0693C439.808 80.6827 490.667 159.104 490.667 246.421V246.443Z" fill="white"/>
</svg>
