<svg width="437" height="470" viewBox="0 0 437 470" fill="none" xmlns="http://www.w3.org/2000/svg">
<path d="M218.496 291.947C193.984 291.947 174.016 312.96 174.016 338.795V468.416C187.946 468.992 202.773 469.333 218.496 469.333C234.218 469.333 249.045 468.992 262.976 468.416V338.795C262.976 312.96 243.008 291.947 218.496 291.947Z" fill="white"/>
<path d="M412.309 122.837C410.816 119.659 408.555 116.885 405.739 114.795C401.792 111.851 397.76 108.864 393.707 105.877V53.44C393.707 35.7547 379.371 21.44 361.707 21.44C344.043 21.44 329.707 35.7547 329.707 53.44V60.16C281.195 26.88 236.459 0 218.496 0C190.784 0 101.376 62.4427 31.232 114.816C28.3947 116.949 26.112 119.744 24.6187 122.987C23.616 125.163 0 177.643 0 284.651C0 330.837 4.30933 399.211 9.216 430.955C10.4747 439.061 16.256 445.717 24.1067 448.107C26.1973 448.747 63.4027 459.797 131.349 465.707V338.816C131.349 289.451 170.432 249.301 218.496 249.301C266.56 249.301 305.643 289.451 305.643 338.816V465.707C373.589 459.819 410.773 448.747 412.843 448.128C420.672 445.739 426.475 439.083 427.712 430.976C432.64 399.019 436.992 330.645 436.992 284.672C436.992 176.747 413.312 125.035 412.309 122.88V122.837Z" fill="white"/>
</svg>
