<svg width="384" height="512" viewBox="0 0 384 512" fill="none" xmlns="http://www.w3.org/2000/svg">
<path d="M277.333 0H106.667C47.8507 0 0 47.8507 0 106.667V405.333C0 464.149 47.8507 512 106.667 512H128C139.776 512 149.333 502.443 149.333 490.667V384H128C116.224 384 106.667 374.443 106.667 362.667C106.667 350.891 116.224 341.333 128 341.333H256C267.776 341.333 277.333 350.891 277.333 362.667C277.333 374.443 267.776 384 256 384H234.667V490.667C234.667 502.443 244.224 512 256 512H277.333C336.149 512 384 464.149 384 405.333V106.667C384 47.8507 336.149 0 277.333 0ZM149.333 298.667H128C116.224 298.667 106.667 289.109 106.667 277.333C106.667 265.557 116.224 256 128 256H149.333C161.109 256 170.667 265.557 170.667 277.333C170.667 289.109 161.109 298.667 149.333 298.667ZM149.333 213.333H128C116.224 213.333 106.667 203.776 106.667 192C106.667 180.224 116.224 170.667 128 170.667H149.333C161.109 170.667 170.667 180.224 170.667 192C170.667 203.776 161.109 213.333 149.333 213.333ZM149.333 128H128C116.224 128 106.667 118.443 106.667 106.667C106.667 94.8907 116.224 85.3333 128 85.3333H149.333C161.109 85.3333 170.667 94.8907 170.667 106.667C170.667 118.443 161.109 128 149.333 128ZM256 298.667H234.667C222.891 298.667 213.333 289.109 213.333 277.333C213.333 265.557 222.891 256 234.667 256H256C267.776 256 277.333 265.557 277.333 277.333C277.333 289.109 267.776 298.667 256 298.667ZM256 213.333H234.667C222.891 213.333 213.333 203.776 213.333 192C213.333 180.224 222.891 170.667 234.667 170.667H256C267.776 170.667 277.333 180.224 277.333 192C277.333 203.776 267.776 213.333 256 213.333ZM256 128H234.667C222.891 128 213.333 118.443 213.333 106.667C213.333 94.8907 222.891 85.3333 234.667 85.3333H256C267.776 85.3333 277.333 94.8907 277.333 106.667C277.333 118.443 267.776 128 256 128Z" fill="white"/>
</svg>
