<svg width="512" height="512" viewBox="0 0 512 512" fill="none" xmlns="http://www.w3.org/2000/svg">
<path d="M493.247 193.132L331.435 31.2001C311.407 11.2199 284.281 0 256 0C227.719 0 200.592 11.2199 180.565 31.2001L18.7522 193.132C12.788 199.061 8.05933 206.116 4.84042 213.888C1.62149 221.66 -0.0236885 229.994 0.000257695 238.407V447.963C0.000257695 464.944 6.7431 481.234 18.7454 493.244C30.7476 505.253 47.0263 512 64.0003 512H448C464.973 512 481.252 505.253 493.255 493.244C505.256 481.234 512 464.944 512 447.963V238.407C512.023 229.994 510.379 221.66 507.159 213.888C503.942 206.116 499.211 199.061 493.247 193.132ZM320 469.308H192V385.331C192 368.347 198.743 352.06 210.745 340.05C222.748 328.041 239.026 321.294 256 321.294C272.974 321.294 289.252 328.041 301.255 340.05C313.256 352.06 320 368.347 320 385.331V469.308ZM469.333 447.963C469.333 453.623 467.086 459.054 463.084 463.056C459.085 467.058 453.658 469.308 448 469.308H362.667V385.331C362.667 357.026 351.428 329.879 331.423 309.862C311.421 289.846 284.29 278.602 256 278.602C227.71 278.602 200.579 289.846 180.575 309.862C160.571 329.879 149.333 357.026 149.333 385.331V469.308H64.0003C58.3421 469.308 52.916 467.058 48.9153 463.056C44.9146 459.054 42.667 453.623 42.667 447.963V238.407C42.6866 232.75 44.9323 227.328 48.9176 223.315L210.731 61.4474C222.756 49.4709 239.033 42.7472 256 42.7472C272.967 42.7472 289.243 49.4709 301.269 61.4474L463.081 223.379C467.052 227.376 469.296 232.772 469.333 238.407V447.963Z" fill="white"/>
</svg>
