<svg width="512" height="512" viewBox="0 0 512 512" fill="none" xmlns="http://www.w3.org/2000/svg">
<path d="M219.669 69.5307L141.44 8.304C127.275 -2.768 107.392 -2.768 93.2267 8.304L15.0187 69.5307C5.54667 76.9333 0 88.304 0 100.336V234.672H234.667V100.336C234.667 88.304 229.141 76.9547 219.669 69.5307ZM149.333 170.672H85.3333V106.672H149.333V170.672ZM480 341.339H458.667V330.672C458.667 313.008 444.331 298.672 426.667 298.672H362.667C345.003 298.672 330.667 313.008 330.667 330.672V341.339H309.333C291.669 341.339 277.333 355.675 277.333 373.339V512.005H512V373.339C512 355.675 497.664 341.339 480 341.339ZM362.667 426.672V384.005H426.667V426.672H362.667ZM204.501 277.339L60.608 421.232C27.1787 381.723 5.504 331.973 0.96 277.339H204.501ZM234.667 511.045C180.032 506.523 130.283 484.827 90.7733 451.397L277.333 264.837V1.072C408.704 11.9307 512 121.819 512 256.005C512 272.389 510.315 288.368 507.371 303.899C503.339 302.299 499.136 301.04 494.805 300.165C483.115 274.16 456.981 256.027 426.667 256.027H362.667C332.373 256.027 306.219 274.181 294.528 300.165C260.416 307.035 234.667 337.243 234.667 373.36V511.045ZM204.501 277.339L60.608 421.232C27.1787 381.723 5.504 331.973 0.96 277.339H204.501Z" fill="white"/>
</svg>
