<svg width="512" height="512" viewBox="0 0 512 512" fill="none" xmlns="http://www.w3.org/2000/svg">
<path d="M512 192V405.333C512 464.149 464.149 512 405.333 512H106.667C47.8507 512 0 464.149 0 405.333V192C0 133.184 47.8507 85.3333 106.667 85.3333H192V64C192 28.7147 220.715 0 256 0C291.285 0 320 28.7147 320 64V85.3333H405.333C464.149 85.3333 512 133.184 512 192ZM234.667 149.333H277.355V64C277.333 52.224 267.755 42.6667 256 42.6667C244.245 42.6667 234.667 52.224 234.667 64V149.333ZM202.667 266.667C202.667 296.085 226.581 320 256 320C285.419 320 309.333 296.085 309.333 266.667C309.333 237.248 285.419 213.333 256 213.333C226.581 213.333 202.667 237.248 202.667 266.667ZM361.984 421.355C350.059 374.976 305.493 341.333 256 341.333C206.507 341.333 161.92 374.976 150.016 421.355C147.072 432.768 153.941 444.395 165.355 447.339C176.811 450.304 188.395 443.371 191.317 431.979C198.357 404.629 226.155 384 256 384C285.845 384 313.643 404.629 320.683 431.979C323.157 441.6 331.819 448 341.333 448C343.083 448 344.875 447.787 346.667 447.339C358.08 444.395 364.928 432.768 361.984 421.355Z" fill="white"/>
</svg>
