<svg width="513" height="513" viewBox="0 0 513 513" fill="none" xmlns="http://www.w3.org/2000/svg">
<path d="M256.297 165.76C277.843 144.213 313.043 144 334.803 165.76L356.99 187.947C361.897 192.853 370.217 192.853 375.123 187.947L502.057 61.0133C484.99 24.96 448.083 0 405.63 0H213.417C154.537 0 106.75 47.7867 106.75 106.667V234.667C106.75 257.493 114.003 278.613 126.163 295.893L256.297 165.76ZM202.75 64C220.457 64 234.75 78.2933 234.75 96C234.75 113.707 220.457 128 202.75 128C185.043 128 170.75 113.707 170.75 96C170.75 78.2933 185.043 64 202.75 64ZM263.123 508.16L78.1633 456.747C21.4166 440.96 -11.8634 382.08 3.9233 325.333L38.27 202.027C43.1766 184.533 52.1366 169.173 64.0833 156.8V234.88C64.0833 317.44 130.857 384.213 213.417 384.213H408.403L394.537 434.133C378.75 490.88 319.87 524.16 263.123 508.373V508.16ZM512.083 111.147V234.667C512.083 293.547 464.297 341.333 405.417 341.333H213.417C192.723 341.333 173.523 335.36 157.097 325.333L286.377 196.053C291.283 191.147 299.603 191.147 304.51 196.053L326.697 218.24C347.603 239.147 384.083 239.147 404.99 218.24L512.083 111.147Z" fill="white"/>
</svg>
