<svg width="506" height="513" viewBox="0 0 506 513" fill="none" xmlns="http://www.w3.org/2000/svg">
<path d="M495.893 118.912L316.053 292.629C297.365 311.019 273.194 320.256 248.959 320.256C225.023 320.256 201.045 311.232 182.25 293.141L121.279 236.864C108.309 224.875 107.498 204.629 119.466 191.637C131.477 178.645 151.722 177.877 164.693 189.824L226.175 246.571C239.253 259.157 258.922 259.072 271.359 246.805L451.434 72.8747C464.149 60.608 484.394 60.9707 496.682 73.664C508.949 86.3787 508.607 106.624 495.893 118.912ZM104.895 117.099C112.191 117.099 119.551 114.624 125.546 109.547C132.629 103.552 140.223 98.0053 148.095 93.0987C163.05 83.712 167.594 63.9573 158.229 48.9813C148.842 34.0053 129.087 29.5467 114.111 38.848C103.679 45.3973 93.6314 52.736 84.2447 60.672C70.7407 72.0853 69.0554 92.2667 80.4687 105.771C86.8047 113.259 95.8074 117.099 104.895 117.099ZM71.914 328.747C68.4154 320.171 65.4927 311.296 63.2954 302.336C59.05 285.163 41.5994 274.667 24.5754 278.933C7.40204 283.157 -3.07263 300.523 1.17271 317.653C4.13804 329.643 7.99937 341.504 12.6714 352.939C17.7274 365.333 29.6954 372.843 42.3247 372.843C46.3354 372.843 50.4527 372.096 54.3994 370.475C70.762 363.797 78.6127 345.109 71.914 328.747ZM24.426 233.899C26.986 234.517 29.5247 234.816 32.0207 234.816C46.442 234.816 59.5194 225.024 63.082 210.389C65.3007 201.365 68.138 192.491 71.594 183.979C78.25 167.595 70.3567 148.928 53.994 142.293C37.546 135.637 18.9434 143.573 12.3087 159.893C7.65804 171.307 3.83937 183.211 0.916708 195.221C-3.26463 212.416 7.25271 229.717 24.426 233.877V233.899ZM233.621 64.576C234.389 64.576 245.034 64.0213 249.663 64.0213C254.293 64.0213 264.938 64.576 265.706 64.576C282.325 64.576 296.383 51.6907 297.578 34.8373C298.837 17.1947 285.567 1.89867 267.925 0.64C261.887 0.192 255.786 0 249.663 0C243.541 0 237.439 0.213333 231.402 0.64C213.781 1.89867 200.511 17.1733 201.749 34.8373C202.943 51.6907 217.002 64.576 233.621 64.576ZM474.901 278.315C457.685 274.133 440.405 284.608 436.202 301.781C433.983 310.763 431.125 319.659 427.647 328.235C420.991 344.619 428.885 363.285 445.247 369.92C449.215 371.52 453.269 372.267 457.258 372.267C469.909 372.267 481.877 364.715 486.933 352.299C491.583 340.864 495.423 328.981 498.367 317.013C502.57 299.84 492.074 282.539 474.901 278.315ZM373.653 402.624C366.549 408.64 358.975 414.165 351.146 419.051C336.17 428.395 331.605 448.149 340.949 463.147C347.007 472.853 357.439 478.187 368.106 478.187C373.887 478.187 379.775 476.629 385.045 473.323C395.455 466.795 405.525 459.477 414.954 451.499C428.458 440.085 430.143 419.904 418.73 406.4C407.338 392.939 387.157 391.211 373.653 402.624ZM148.65 419.328C140.821 414.443 133.205 408.96 126.101 402.965C112.575 391.552 92.3727 393.344 81.0234 406.848C69.6527 420.373 71.3807 440.555 84.906 451.925C94.3567 459.883 104.469 467.221 114.901 473.707C120.149 476.971 125.994 478.528 131.754 478.528C142.442 478.528 152.895 473.173 158.954 463.403C168.277 448.384 163.669 428.629 148.65 419.328ZM263.893 447.488C254.698 448.128 245.205 448.171 236.01 447.531C218.687 446.293 203.093 459.541 201.813 477.184C200.533 494.827 213.802 510.123 231.466 511.381C237.461 511.829 243.519 512.021 249.663 512.021C255.999 512.021 262.293 511.787 268.522 511.339C286.143 510.059 299.391 494.741 298.133 477.12C296.831 459.499 281.365 446.187 263.914 447.509L263.893 447.488Z" fill="white"/>
</svg>
