<svg width="512" height="512" viewBox="0 0 512 512" fill="none" xmlns="http://www.w3.org/2000/svg">
<path d="M497.451 151.893C488.491 147.627 478.101 148.779 469.44 155.755L405.333 234.667V174.997C405.355 165.056 399.808 156.181 390.827 151.872C381.867 147.605 371.477 148.757 362.816 155.733L298.688 234.688V175.019C298.709 165.077 293.163 156.203 284.181 151.893C275.221 147.627 264.832 148.779 256.171 155.755L176.747 234.923L135.168 33.6427C130.965 14.144 113.408 0 93.4827 0H42.6667C19.0933 0 0 19.0933 0 42.6667V405.333C0 464.235 47.7653 512 106.667 512H405.333C464.235 512 512 464.235 512 405.333V175.019C512 165.077 506.432 156.203 497.451 151.893ZM213.333 384C213.333 395.776 203.776 405.333 192 405.333H170.667C158.891 405.333 149.333 395.776 149.333 384V362.667C149.333 350.891 158.891 341.333 170.667 341.333H192C203.776 341.333 213.333 350.891 213.333 362.667V384ZM320 384C320 395.776 310.443 405.333 298.667 405.333H277.333C265.557 405.333 256 395.776 256 384V362.667C256 350.891 265.557 341.333 277.333 341.333H298.667C310.443 341.333 320 350.891 320 362.667V384ZM426.667 384C426.667 395.776 417.109 405.333 405.333 405.333H384C372.224 405.333 362.667 395.776 362.667 384V362.667C362.667 350.891 372.224 341.333 384 341.333H405.333C417.109 341.333 426.667 350.891 426.667 362.667V384Z" fill="white"/>
</svg>
