<svg width="512" height="512" viewBox="0 0 512 512" fill="none" xmlns="http://www.w3.org/2000/svg">
<path d="M256 199C273.673 199 288 184.673 288 167C288 149.327 273.673 135 256 135C238.327 135 224 149.327 224 167C224 184.673 238.327 199 256 199Z" fill="white"/>
<path d="M245.667 232H224.333C218.675 232 213.249 234.248 209.248 238.248C205.248 242.249 203 247.675 203 253.333C203 258.991 205.248 264.417 209.248 268.418C213.249 272.419 218.675 274.667 224.333 274.667H245.667V402.667C245.667 408.325 247.914 413.751 251.915 417.752C255.916 421.752 261.342 424 267 424C272.658 424 278.084 421.752 282.085 417.752C286.086 413.751 288.333 408.325 288.333 402.667V274.667C288.333 263.351 283.838 252.498 275.837 244.497C267.835 236.495 256.983 232 245.667 232Z" fill="white"/>
<path d="M256 0C205.368 0 155.873 15.0141 113.774 43.1438C71.6751 71.2734 38.863 111.255 19.487 158.033C0.110921 204.811 -4.95873 256.284 4.91908 305.943C14.7969 355.602 39.1785 401.217 74.9808 437.019C110.783 472.822 156.398 497.203 206.057 507.081C255.716 516.959 307.189 511.889 353.967 492.513C400.745 473.137 440.727 440.325 468.856 398.226C496.986 356.127 512 306.632 512 256C511.927 188.127 484.932 123.055 436.938 75.0618C388.945 27.0683 323.873 0.0734097 256 0ZM256 469.333C213.807 469.333 172.561 456.822 137.478 433.38C102.396 409.939 75.0525 376.621 58.9058 337.639C42.7591 298.658 38.5344 255.763 46.7659 214.381C54.9974 172.998 75.3155 134.986 105.151 105.151C134.986 75.3154 172.998 54.9973 214.381 46.7658C255.763 38.5343 298.658 42.759 337.639 58.9057C376.621 75.0524 409.939 102.396 433.38 137.478C456.822 172.561 469.333 213.807 469.333 256C469.271 312.56 446.775 366.787 406.781 406.781C366.787 446.775 312.561 469.271 256 469.333Z" fill="white"/>
</svg>
