<svg width="512" height="512" viewBox="0 0 512 512" fill="none" xmlns="http://www.w3.org/2000/svg">
<path d="M340.89 270.94V213.34C340.89 207.682 343.137 202.256 347.138 198.255C351.139 194.254 356.565 192.007 362.223 192.007H383.557C389.214 192.007 394.641 189.759 398.641 185.758C402.642 181.757 404.89 176.331 404.89 170.673V149.34C404.89 143.682 407.137 138.256 411.138 134.255C415.139 130.254 420.565 128.007 426.223 128.007H483.503C487.665 127.986 491.732 126.769 495.22 124.499C498.708 122.229 501.469 119.003 503.173 115.207C510.378 99.3383 513.15 81.8146 511.194 64.4973C508.756 46.4669 499.803 29.9526 486.023 18.0715C472.244 6.19035 454.592 -0.235588 436.399 0.00660478C410.73 0.0082282 386.112 10.2067 367.962 28.3586L199.258 197.02C172.064 189.955 143.474 190.309 116.463 198.044C79.3017 208.552 47.195 232.147 26.0675 264.474C4.94001 296.801 -3.78237 335.678 1.50986 373.933C6.8021 412.187 25.7518 447.236 54.8622 472.613C83.9726 497.99 121.279 511.982 159.898 512.007C165.484 512.001 171.067 511.709 176.623 511.132C208.413 507.671 238.447 494.799 262.877 474.166C287.307 453.532 305.022 426.076 313.754 395.313C321.513 368.313 321.86 339.721 314.757 312.54L328.623 298.673C335.997 291.261 340.367 281.382 340.89 270.94ZM117.125 426.673C110.796 426.673 104.609 424.796 99.3463 421.28C94.0839 417.764 89.9824 412.766 87.5604 406.919C85.1384 401.072 84.5047 394.638 85.7394 388.43C86.9741 382.223 90.0218 376.521 94.4971 372.046C98.9724 367.571 104.674 364.523 110.882 363.288C117.089 362.053 123.523 362.687 129.37 365.109C135.218 367.531 140.215 371.633 143.732 376.895C147.248 382.157 149.125 388.344 149.125 394.673C149.125 403.16 145.753 411.3 139.752 417.301C133.751 423.302 125.611 426.673 117.125 426.673Z" fill="white"/>
</svg>
