<svg width="385" height="513" viewBox="0 0 385 513" fill="none" xmlns="http://www.w3.org/2000/svg">
<path d="M61.2971 332.517C38.7976 311.734 21.636 285.836 11.2644 257.017C0.892825 228.197 -2.38337 197.303 1.71306 166.949C5.76354 136.17 17.2167 106.833 35.091 81.4512C52.9652 56.0696 76.7274 35.4005 104.341 21.2156C131.954 7.03077 162.596 -0.246909 193.638 0.00639275C224.681 0.259694 255.2 8.03642 282.578 22.67C309.956 37.3036 333.378 58.3577 350.836 84.0276C368.293 109.698 379.266 139.218 382.814 170.058C386.362 200.899 382.378 232.139 371.205 261.103C360.032 290.066 342.003 315.889 318.662 336.357C303.633 349.278 291.964 365.654 284.657 384.079H213.446V230.821C225.882 226.424 236.655 218.293 244.293 207.539C251.93 196.786 256.058 183.935 256.113 170.746C256.113 165.088 253.865 159.662 249.865 155.661C245.864 151.66 240.438 149.413 234.78 149.413C229.122 149.413 223.696 151.66 219.695 155.661C215.694 159.662 213.446 165.088 213.446 170.746C213.446 176.404 211.199 181.83 207.198 185.831C203.197 189.832 197.771 192.079 192.113 192.079C186.455 192.079 181.029 189.832 177.028 185.831C173.027 181.83 170.78 176.404 170.78 170.746C170.78 165.088 168.532 159.662 164.531 155.661C160.531 151.66 155.104 149.413 149.446 149.413C143.788 149.413 138.362 151.66 134.361 155.661C130.361 159.662 128.113 165.088 128.113 170.746C128.168 183.935 132.296 196.786 139.934 207.539C147.571 218.293 158.344 226.424 170.78 230.821V384.079H97.4571C89.3013 364.464 76.9605 346.867 61.2971 332.517ZM106.78 426.746V433.359C106.802 454.23 115.103 474.24 129.861 488.998C144.619 503.756 164.629 512.057 185.5 512.079H198.726C219.597 512.057 239.607 503.756 254.365 488.998C269.123 474.24 277.424 454.23 277.446 433.359V426.746H106.78Z" fill="white"/>
</svg>
