<svg width="512" height="513" viewBox="0 0 512 513" fill="none" xmlns="http://www.w3.org/2000/svg">
<path d="M512 149.333V192C512 203.776 502.443 213.333 490.667 213.333C478.891 213.333 469.333 203.776 469.333 192V149.333C469.333 125.803 450.197 106.667 426.667 106.667H383.381L410.048 134.549C418.219 143.04 417.963 156.544 409.451 164.715C405.312 168.704 400 170.667 394.667 170.667C389.077 170.667 383.488 168.469 379.285 164.117L332.096 115.029C315.861 98.7947 315.861 71.872 332.373 55.3387L379.285 6.54933C387.456 -1.94133 400.981 -2.19733 409.451 5.952C417.941 14.1227 418.219 27.6267 410.048 36.1173L383.232 64H426.667C473.728 64 512 102.272 512 149.333ZM132.715 347.883C124.544 339.392 111.04 339.157 102.549 347.307C94.0587 355.477 93.7813 368.981 101.952 377.472L128.619 405.355H85.3333C61.8027 405.355 42.6667 386.219 42.6667 362.688V320.021C42.6667 308.224 33.1093 298.688 21.3333 298.688C9.55733 298.688 0 308.224 0 320.021V362.688C0 409.749 38.272 448.021 85.3333 448.021H128.747L101.952 475.904C93.7813 484.395 94.0373 497.899 102.549 506.069C106.688 510.059 112 512.021 117.333 512.021C122.923 512.021 128.512 509.824 132.715 505.472L179.627 456.661C196.117 440.149 196.117 413.227 179.904 396.971L132.715 347.883ZM256 170.667C256 217.792 217.792 256 170.667 256H85.3333C38.208 256 0 217.792 0 170.667V85.3333C0 38.208 38.208 0 85.3333 0H170.667C217.792 0 256 38.208 256 85.3333V170.667ZM202.667 77.1413C202.667 69.888 196.779 64 189.525 64H141.376V55.808C141.376 48.5547 135.488 42.6667 128.235 42.6667H127.787C120.533 42.6667 114.645 48.5547 114.645 55.808V64H66.4747C59.2213 64 53.3333 69.888 53.3333 77.1413V77.5893C53.3333 84.8427 59.2213 90.7307 66.4747 90.7307H155.904C153.536 111.275 145.579 136.619 128.107 156.245C122.219 149.632 117.291 142.421 113.344 134.912C111.083 130.603 106.56 127.979 101.717 127.979C91.8187 127.979 85.312 138.475 89.92 147.243C94.72 156.416 100.608 165.227 107.627 173.269C96.128 180.267 82.2613 185.195 65.4507 186.816C58.624 187.477 53.3333 193.067 53.3333 199.915V200.363C53.3333 208.149 60.0747 214.187 67.8187 213.461C92.2667 211.179 112.171 203.115 128.235 191.659C144.213 203.029 163.883 211.136 188.139 213.461C195.904 214.208 202.645 208.171 202.645 200.384V199.936C202.645 193.195 197.525 187.499 190.805 186.859C173.909 185.259 160.043 180.245 148.48 173.227C169.6 149.013 180.16 117.952 182.763 90.752H189.504C196.757 90.752 202.645 84.864 202.645 77.6107V77.1627L202.667 77.1413ZM512 341.333V426.667C512 473.792 473.792 512 426.667 512H341.333C294.208 512 256 473.792 256 426.667V341.333C256 294.208 294.208 256 341.333 256H426.667C473.792 256 512 294.208 512 341.333ZM443.819 451.072L414.741 324.181C412.459 314.283 406.144 305.28 396.779 301.355C377.173 293.141 357.205 304.661 352.917 323.136L322.773 450.987C320.555 460.352 327.68 469.333 337.301 469.333C344.213 469.333 350.229 464.576 351.829 457.835L357.675 433.067H409.067L414.72 457.749C416.277 464.533 422.315 469.333 429.269 469.333H429.312C438.891 469.333 445.995 460.416 443.861 451.072H443.819ZM383.701 328.533C382.891 328.533 382.187 329.088 382.016 329.877L364.715 403.2H402.197L385.408 329.877C385.216 329.088 384.512 328.533 383.701 328.533Z" fill="white"/>
</svg>
