<svg width="512" height="384" viewBox="0 0 512 384" fill="none" xmlns="http://www.w3.org/2000/svg">
<path d="M338.091 277.334C331.889 277.332 325.762 278.683 320.136 281.292C314.51 283.9 309.521 287.704 305.515 292.438L300.245 298.667H211.733L206.485 292.438C202.477 287.701 197.484 283.896 191.854 281.287C186.224 278.679 180.093 277.329 173.888 277.334H53.3333C39.1885 277.334 25.6229 282.953 15.621 292.954C5.61903 302.956 0 316.522 0 330.667C0 344.812 5.61903 358.377 15.621 368.379C25.6229 378.381 39.1885 384 53.3333 384H458.667C465.671 384 472.606 382.621 479.076 379.94C485.547 377.26 491.427 373.332 496.379 368.379C501.332 363.427 505.26 357.547 507.94 351.077C510.62 344.606 512 337.671 512 330.667C512 323.663 510.62 316.728 507.94 310.257C505.26 303.786 501.332 297.907 496.379 292.954C491.427 288.002 485.547 284.074 479.076 281.393C472.606 278.713 465.671 277.334 458.667 277.334H338.091Z" fill="white"/>
<path d="M64.0003 234.667H173.888C194.699 234.636 214.801 242.225 230.4 256H281.6C297.196 242.246 317.276 234.66 338.07 234.667H448C455.173 234.716 462.322 235.503 469.334 237.013V106.667C469.3 78.3873 458.051 51.2759 438.054 31.2794C418.058 11.2828 390.946 0.0338743 362.667 0H149.334C121.054 0.0338743 93.9429 11.2828 73.9464 31.2794C53.9498 51.2759 42.7009 78.3873 42.667 106.667V237.013C49.679 235.503 56.8276 234.716 64.0003 234.667Z" fill="white"/>
</svg>
