<svg width="513" height="512" viewBox="0 0 513 512" fill="none" xmlns="http://www.w3.org/2000/svg">
<path d="M510.697 226.872L445.183 49.0587C436.159 24.504 410.324 11.064 384.937 17.8053L277.353 46.4987V20.92C277.225 -6.984 234.815 -6.96267 234.687 20.92V57.8693L122.601 87.7573C95.8279 94.904 74.1106 114.701 64.5106 140.707L1.34259 312.205C0.46792 314.573 0.0199203 326.008 0.0199203 326.008C-1.64408 409.72 101.332 459.704 162.111 399.864C181.119 381.816 192.02 356.429 192.02 330.232C192.02 330.232 191.572 314.616 190.74 312.269L125.247 132.195C127.892 130.851 130.687 129.763 133.609 128.995L234.687 102.029V468.92H106.687C78.7826 469.048 78.8039 511.459 106.687 511.587H405.353C433.257 511.459 433.236 469.048 405.353 468.92H277.353V90.6373L381.801 62.776L321.343 226.851C320.468 229.219 320.02 240.653 320.02 240.653C320.02 294.115 359.935 338.083 410.9 340.749C437.545 342.157 462.825 332.835 482.111 314.531C501.119 296.483 512.02 271.096 512.02 244.899C512.02 244.899 511.572 229.219 510.697 226.851V226.872ZM140.223 298.253H51.9453L96.3826 177.656L140.223 298.253ZM416.02 93.304L460.095 212.92H371.945L416.02 93.304Z" fill="white"/>
</svg>
