<svg width="512" height="512" viewBox="0 0 512 512" fill="none" xmlns="http://www.w3.org/2000/svg">
<path d="M512 319.989C512 333.151 506.88 345.525 497.536 354.848L453.333 399.072C449.173 403.232 443.712 405.322 438.251 405.322C432.789 405.322 427.328 403.232 423.168 399.072C414.827 390.73 414.827 377.247 423.168 368.906L450.731 341.322H320C308.203 341.322 298.667 331.786 298.667 319.989C298.667 308.191 308.203 298.655 320 298.655H450.731L423.168 271.071C414.827 262.73 414.827 249.247 423.168 240.906C431.509 232.565 444.992 232.565 453.333 240.906L497.557 285.151C506.88 294.453 512 306.826 512 319.989ZM298.667 234.655V127.989C298.667 104.458 279.531 85.3221 256 85.3221V469.301H277.333C289.109 469.301 298.667 459.744 298.667 447.968V405.301C298.667 393.504 308.203 383.968 320 383.968C331.797 383.968 341.333 393.504 341.333 405.301V447.968C341.333 483.253 312.619 511.968 277.333 511.968H64C28.7147 511.968 0 483.253 0 447.968V119.903C0 69.2368 36.0533 25.2475 85.7387 15.3061L153.941 1.67414C179.136 -3.36053 204.949 3.08214 224.789 19.3595C232.789 25.9088 238.976 33.9728 244.032 42.6555H256C303.061 42.6555 341.333 80.9275 341.333 127.989V234.655C341.333 246.453 331.797 255.989 320 255.989C308.203 255.989 298.667 246.453 298.667 234.655ZM192 266.655C192 248.991 177.664 234.655 160 234.655C142.336 234.655 128 248.991 128 266.655C128 284.319 142.336 298.655 160 298.655C177.664 298.655 192 284.319 192 266.655Z" fill="white"/>
</svg>
