<svg width="512" height="512" viewBox="0 0 512 512" fill="none" xmlns="http://www.w3.org/2000/svg">
<path d="M168.389 343.493C155.888 331.013 155.888 310.725 168.389 298.245C180.891 285.744 201.136 285.744 213.637 298.245C241.925 326.533 291.291 326.555 319.579 298.245L426.011 191.813C455.216 162.608 455.216 115.077 426.011 85.872C396.805 56.6667 349.275 56.6667 320.069 85.872C307.568 98.3733 287.323 98.3733 274.821 85.872C262.32 73.392 262.32 53.104 274.821 40.624C328.965 -13.5413 417.115 -13.5413 471.259 40.624C525.424 94.7893 525.424 182.896 471.259 237.061L364.827 343.493C337.733 370.587 302.171 384.112 266.608 384.112C231.045 384.112 195.461 370.565 168.389 343.493ZM138.864 511.877C174.427 511.877 209.989 498.331 237.083 471.259C249.584 458.779 249.584 438.491 237.083 426.011C224.581 413.509 204.336 413.509 191.835 426.011C162.608 455.237 115.077 455.216 85.8933 426.011C56.688 396.805 56.688 349.275 85.8933 320.069L191.728 214.235C220.955 185.008 268.485 185.008 297.669 214.235C310.171 226.736 330.416 226.736 342.917 214.235C355.419 201.755 355.419 181.467 342.917 168.987C288.752 114.821 200.645 114.821 146.48 168.987L40.624 274.821C-13.5413 328.987 -13.5413 417.093 40.624 471.259C67.7173 498.352 103.301 511.877 138.864 511.877Z" fill="white"/>
</svg>
