<svg width="299" height="512" viewBox="0 0 299 512" fill="none" xmlns="http://www.w3.org/2000/svg">
<path d="M192 511.965H106.667C78.3873 511.931 51.2759 500.682 31.2794 480.685C11.2828 460.689 0.0338743 433.577 0 405.298V362.631C0 345.657 6.74284 329.379 18.7452 317.376C30.7475 305.374 47.0261 298.631 64 298.631H234.667C251.641 298.631 267.919 305.374 279.922 317.376C291.924 329.379 298.667 345.657 298.667 362.631V405.298C298.633 433.577 287.384 460.689 267.387 480.685C247.391 500.682 220.279 511.931 192 511.965ZM256 255.965V213.298C256 207.64 253.752 202.214 249.752 198.213C245.751 194.212 240.325 191.965 234.667 191.965H64C58.342 191.965 52.9158 194.212 48.9151 198.213C44.9143 202.214 42.6667 207.64 42.6667 213.298V255.965H256ZM213.333 149.298V30.1298C213.335 24.9936 212.022 19.9422 209.522 15.4559C207.021 10.9696 203.414 7.19724 199.045 4.49733C194.675 1.79743 189.688 0.259645 184.557 0.0301007C179.426 -0.199443 174.321 0.886877 169.728 3.18584L113.792 31.1538C105.24 35.4264 98.0475 41.997 93.0208 50.1286C87.9941 58.2602 85.3321 67.6313 85.3333 77.1912V149.298H213.333Z" fill="white"/>
</svg>
