<svg width="427" height="512" viewBox="0 0 427 512" fill="none" xmlns="http://www.w3.org/2000/svg">
<path d="M362.666 179.712V149.333C362.666 66.859 295.808 0 213.333 0C130.858 0 64 66.859 64 149.333V179.712C25.174 196.657 0.056 234.971 0 277.333V405.333C0.07 464.214 47.785 511.93 106.666 512H319.999C378.88 511.93 426.595 464.214 426.666 405.333V277.333C426.611 234.971 401.492 196.657 362.666 179.712ZM234.666 362.667C234.666 374.449 225.115 384 213.333 384C201.551 384 192 374.449 192 362.667V320C192 308.218 201.551 298.667 213.333 298.667C225.115 298.667 234.666 308.218 234.666 320V362.667ZM320 170.667H106.666V149.334C106.666 90.424 154.422 42.667 213.333 42.667C272.244 42.667 320 90.423 320 149.334V170.667Z" fill="white"/>
</svg>
