<svg width="512" height="470" viewBox="0 0 512 470" fill="none" xmlns="http://www.w3.org/2000/svg">
<path d="M511.019 96.896L331.435 276.48C311.411 296.453 284.283 307.67 256 307.67C227.717 307.67 200.589 296.453 180.565 276.48L0.981333 96.896C0.682667 100.267 0 103.317 0 106.667V362.667C0.0338743 390.946 11.2828 418.057 31.2794 438.054C51.2759 458.051 78.3873 469.299 106.667 469.333H405.333C433.613 469.299 460.724 458.051 480.721 438.054C500.717 418.057 511.966 390.946 512 362.667V106.667C512 103.317 511.317 100.267 511.019 96.896Z" fill="white"/>
<path d="M301.268 246.315L496.127 51.4347C486.688 35.7828 473.374 22.8275 457.471 13.8182C441.567 4.80903 423.61 0.0499342 405.332 0H106.666C88.3878 0.0499342 70.4311 4.80903 54.5277 13.8182C38.6242 22.8275 25.3106 35.7828 15.8711 51.4347L210.73 246.315C222.753 258.289 239.03 265.013 255.999 265.013C272.968 265.013 289.246 258.289 301.268 246.315Z" fill="white"/>
</svg>
