<svg width="342" height="512" viewBox="0 0 342 512" fill="none" xmlns="http://www.w3.org/2000/svg">
<path d="M234.667 0H106.667C47.8507 0 0 47.8507 0 106.667V405.333C0 464.149 47.8507 512 106.667 512H234.667C293.483 512 341.333 464.149 341.333 405.333V106.667C341.333 47.8507 293.483 0 234.667 0ZM192 448H149.333C137.557 448 128 438.443 128 426.667C128 414.891 137.557 405.333 149.333 405.333H192C203.776 405.333 213.333 414.891 213.333 426.667C213.333 438.443 203.776 448 192 448Z" fill="white"/>
</svg>
