<svg width="512" height="512" viewBox="0 0 512 512" fill="none" xmlns="http://www.w3.org/2000/svg">
<path d="M512 154.965C512 182.08 489.941 204.139 462.805 204.139H455.424V234.667H419.221V204.139H414.699C387.52 204.139 365.163 183.211 362.859 156.629H399.509C401.451 163.157 407.531 167.936 414.699 167.936H462.805C469.973 167.936 475.797 162.112 475.797 154.944C475.797 148.779 471.403 143.424 465.344 142.208L402.197 129.579C379.285 124.992 362.667 104.725 362.667 81.344C362.667 54.2293 384.725 32.1707 411.84 32.1707H419.243V0H455.445V32.1707H459.968C487.147 32.1707 509.504 53.0987 511.808 79.68H475.157C473.216 73.152 467.136 68.3733 459.968 68.3733H411.84C404.672 68.3733 398.869 74.1973 398.869 81.3653C398.869 87.5307 403.264 92.8853 409.301 94.1013L472.469 106.752C495.381 111.317 512 131.584 512 154.965ZM117.333 234.667C52.5227 234.667 0 182.144 0 117.333C0 52.5227 52.5227 0 117.333 0C174.848 0 222.592 41.408 232.64 96H277.333V37.3333L343.232 104.768C350.165 111.701 350.165 122.965 343.232 129.899L277.333 197.333V138.667H232.64C222.592 193.259 174.848 234.667 117.333 234.667ZM132.373 158.784L132.459 158.699L197.419 90.7307L167.595 60.224L102.464 128.32L61.5893 85.632L32 116.373L72.1493 158.357C88.4907 174.677 116.501 174.656 132.373 158.784ZM298.667 258.283C298.667 237.035 284.139 217.323 263.168 213.909C236.437 209.557 213.333 230.08 213.333 256V444.096C190.379 425.195 168.299 406.72 167.573 406.037C147.904 387.669 116.949 388.693 98.56 408.363C80.1493 428.053 81.088 458.965 100.651 477.269L139.499 512H490.667V426.667L298.667 351.189V258.283Z" fill="white"/>
</svg>
