<svg width="512" height="512" viewBox="0 0 512 512" fill="none" xmlns="http://www.w3.org/2000/svg">
<path d="M512 85.3333C512 38.272 473.728 0 426.667 0C379.605 0 341.333 38.272 341.333 85.3333C341.333 86.7627 341.696 88.1067 341.76 89.5147L157.568 147.072C142.485 122.901 115.861 106.667 85.3333 106.667C38.272 106.667 0 144.939 0 192C0 239.061 38.272 277.333 85.3333 277.333C102.443 277.333 118.336 272.149 131.712 263.445L266.325 386.837C259.947 398.784 256 412.203 256 426.667C256 473.728 294.272 512 341.333 512C388.395 512 426.667 473.728 426.667 426.667C426.667 394.389 408.448 366.592 381.952 352.085L427.328 170.603C474.069 170.24 512 132.16 512 85.3333ZM354.432 130.261C362.219 142.72 373.12 152.832 386.048 159.915L340.693 341.419C323.84 341.547 308.181 346.645 294.976 355.221L160.363 231.829C166.741 219.883 170.688 206.464 170.688 192C170.688 190.571 170.325 189.227 170.261 187.819L354.432 130.261Z" fill="white"/>
</svg>
