<svg width="512" height="512" viewBox="0 0 512 512" fill="none" xmlns="http://www.w3.org/2000/svg">
<path d="M256 0C146.106 0 0 26.5309 0 256C0 482.909 136.797 512 256 512C375.203 512 512 482.909 512 256C512 29.0909 375.18 0 256 0ZM302.406 372.364C302.406 385.21 292.003 395.636 279.133 395.636C266.287 395.636 255.86 385.21 255.86 372.364L255.977 167.284C226.49 179.665 215.855 214.202 215.319 215.994C211.665 228.259 198.726 235.264 186.484 231.773C174.196 228.189 167.098 215.389 170.612 203.101C179.293 172.753 213.108 116.527 279.575 116.41C292.305 116.573 302.545 126.953 302.545 139.683L302.406 372.41V372.364Z" fill="white"/>
</svg>
