<svg width="513" height="512" viewBox="0 0 513 512" fill="none" xmlns="http://www.w3.org/2000/svg">
<path d="M426.112 358.405L428.245 360.539C433.088 365.423 439.088 369.003 445.686 370.947C452.284 372.89 459.267 373.133 465.984 371.653C472.593 370.266 478.747 367.24 483.88 362.852C489.013 358.464 492.961 352.856 495.36 346.544C507.138 315.617 512.769 282.689 511.936 249.605C509.535 184.624 482.808 122.917 437.052 76.7142C391.296 30.5116 329.851 3.18636 264.896 0.154624C230.549 -1.03965 196.313 4.69415 164.23 17.0142C132.146 29.3342 102.872 47.9883 78.1518 71.8642C53.4318 95.7401 33.7723 124.349 20.3455 155.985C6.91862 187.622 -0.000708961 221.638 5.44835e-08 256.005C0.0790448 323.876 27.0758 388.945 75.068 436.937C123.06 484.93 188.129 511.926 256 512.005C263.211 512.005 270.293 511.536 277.333 510.939C282.675 510.488 287.652 508.043 291.273 504.09C294.894 500.137 296.894 494.966 296.875 489.605L296.192 413.061C296.019 397.935 300.359 383.101 308.656 370.453C316.953 357.805 328.832 347.916 342.775 342.05C356.718 336.185 372.094 334.608 386.937 337.521C401.781 340.434 415.42 347.705 426.112 358.405ZM363.349 171.739C369.466 170.116 375.927 170.343 381.915 172.391C387.903 174.44 393.149 178.218 396.989 183.248C400.83 188.277 403.093 194.333 403.493 200.649C403.892 206.965 402.41 213.258 399.233 218.731C396.056 224.205 391.328 228.613 385.646 231.4C379.963 234.186 373.583 235.225 367.31 234.385C361.037 233.546 355.155 230.865 350.406 226.682C345.657 222.499 342.254 217.002 340.629 210.885C339.55 206.823 339.282 202.588 339.839 198.422C340.397 194.256 341.77 190.241 343.88 186.605C345.99 182.97 348.795 179.786 352.136 177.235C355.476 174.684 359.287 172.817 363.349 171.739ZM166.443 361.605C160.326 363.228 153.865 363.001 147.877 360.953C141.889 358.904 136.643 355.126 132.803 350.096C128.962 345.066 126.699 339.011 126.299 332.695C125.9 326.379 127.383 320.086 130.559 314.613C133.736 309.139 138.464 304.731 144.146 301.944C149.829 299.158 156.209 298.119 162.482 298.959C168.755 299.798 174.637 302.479 179.386 306.662C184.135 310.845 187.538 316.342 189.163 322.459C190.242 326.521 190.51 330.756 189.953 334.922C189.395 339.088 188.022 343.103 185.912 346.738C183.802 350.374 180.997 353.558 177.656 356.109C174.316 358.66 170.505 360.527 166.443 361.605ZM166.443 233.605C160.326 235.228 153.865 235.001 147.877 232.953C141.889 230.904 136.643 227.126 132.803 222.096C128.962 217.066 126.699 211.011 126.299 204.695C125.9 198.379 127.383 192.086 130.559 186.613C133.736 181.139 138.464 176.731 144.146 173.944C149.829 171.158 156.209 170.119 162.482 170.959C168.755 171.798 174.637 174.479 179.386 178.662C184.135 182.845 187.538 188.342 189.163 194.459C190.242 198.521 190.51 202.756 189.953 206.922C189.395 211.088 188.022 215.103 185.912 218.738C183.802 222.374 180.997 225.558 177.656 228.109C174.316 230.66 170.505 232.527 166.443 233.605ZM273.109 169.605C266.992 171.228 260.532 171.001 254.544 168.953C248.556 166.904 243.31 163.126 239.469 158.096C235.628 153.066 233.365 147.011 232.966 140.695C232.567 134.379 234.049 128.086 237.226 122.613C240.403 117.139 245.131 112.731 250.813 109.944C256.495 107.158 262.876 106.119 269.149 106.959C275.421 107.798 281.304 110.479 286.053 114.662C290.802 118.845 294.204 124.342 295.829 130.459C296.909 134.521 297.177 138.756 296.619 142.922C296.062 147.088 294.689 151.103 292.579 154.738C290.469 158.374 287.664 161.558 284.323 164.109C280.982 166.66 277.172 168.527 273.109 169.605Z" fill="white"/>
</svg>
