<svg width="512" height="512" viewBox="0 0 512 512" fill="none" xmlns="http://www.w3.org/2000/svg">
<g clip-path="url(#clip0_89_20)">
<path d="M25.0025 407.865C8.99827 423.864 0.00464995 445.565 -0.000183105 468.195L-0.000183105 511.992H43.7972C66.4271 511.988 88.1284 502.994 104.128 486.99L388.779 202.34L309.653 123.214L25.0025 407.865Z" fill="white"/>
<path d="M493.756 18.2433C488.561 13.0429 482.392 8.9175 475.602 6.10281C468.812 3.28812 461.534 1.83936 454.183 1.83936C446.832 1.83936 439.554 3.28812 432.764 6.10281C425.973 8.9175 419.805 13.0429 414.61 18.2433L339.815 93.0593L418.94 172.185L493.756 97.3899C498.957 92.195 503.082 86.0261 505.897 79.2358C508.711 72.4456 510.16 65.1671 510.16 57.8166C510.16 50.4661 508.711 43.1876 505.897 36.3973C503.082 29.6071 498.957 23.4382 493.756 18.2433V18.2433Z" fill="white"/>
</g>
<defs>
<clipPath id="clip0_89_20">
<rect width="512" height="512" fill="white"/>
</clipPath>
</defs>
</svg>
