<svg width="512" height="512" viewBox="0 0 512 512" fill="none" xmlns="http://www.w3.org/2000/svg">
<path d="M471.695 129.705C495.802 105.598 506.703 57.1713 511.375 25.8539C511.888 22.364 511.576 18.8023 510.464 15.4547C509.352 12.1071 507.471 9.06678 504.971 6.57765C502.472 4.08853 499.424 2.2199 496.071 1.1217C492.719 0.0234951 489.156 -0.273711 485.669 0.253925C412.239 12.2433 354.767 30.1206 362.575 118.995L335.162 146.302C353.381 107.091 325.007 52.7339 303.781 28.5846C301.794 26.2898 299.337 24.4492 296.576 23.1877C293.816 21.9261 290.816 21.2732 287.781 21.2732C284.745 21.2732 281.746 21.9261 278.985 23.1877C276.224 24.4492 273.767 26.2898 271.781 28.5846C250.144 53.3622 237.042 84.4359 234.405 117.225C235.597 133.627 240.575 149.529 248.948 163.683C257.321 177.838 268.86 189.859 282.661 198.803L228.495 252.969C246.714 213.758 218.341 159.401 197.114 135.251C195.127 132.956 192.67 131.116 189.91 129.854C187.149 128.593 184.149 127.94 181.114 127.94C178.079 127.94 175.079 128.593 172.318 129.854C169.558 131.116 167.1 132.956 165.114 135.251C143.478 160.029 130.375 191.103 127.738 223.891C128.931 240.293 133.909 256.196 142.281 270.35C150.654 284.505 162.194 296.526 175.994 305.47L121.829 359.635C140.047 320.425 111.674 266.067 90.4472 241.918C88.4606 239.623 86.0036 237.783 83.2429 236.521C80.4822 235.259 77.4824 234.607 74.4472 234.607C71.4119 234.607 68.4122 235.259 65.6515 236.521C62.8908 237.783 60.4338 239.623 58.4472 241.918C36.8111 266.696 23.7085 297.769 21.0712 330.558C22.2639 346.96 27.242 362.862 35.6147 377.017C43.9874 391.171 55.5268 403.192 69.3272 412.137L5.98852 475.475C2.10248 479.499 -0.0477998 484.888 0.000806456 490.481C0.0494127 496.075 2.29302 501.425 6.24839 505.381C10.2038 509.336 15.5544 511.58 21.148 511.628C26.7415 511.677 32.1303 509.527 36.1539 505.641L99.4925 442.302C108.437 456.102 120.458 467.642 134.612 476.014C148.767 484.387 164.669 489.365 181.071 490.558C213.85 487.945 244.922 474.872 269.711 453.267C272.006 451.281 273.847 448.824 275.108 446.063C276.37 443.302 277.023 440.303 277.023 437.267C277.023 434.232 276.37 431.232 275.108 428.472C273.847 425.711 272.006 423.254 269.711 421.267C245.562 399.934 191.226 371.667 151.994 389.886L206.159 335.721C215.113 349.505 227.138 361.028 241.292 369.386C255.446 377.743 271.343 382.708 287.738 383.891C320.516 381.278 351.589 368.206 376.378 346.601C378.673 344.614 380.513 342.157 381.775 339.396C383.036 336.636 383.689 333.636 383.689 330.601C383.689 327.565 383.036 324.566 381.775 321.805C380.513 319.044 378.673 316.587 376.378 314.601C352.229 293.374 297.893 265.001 258.661 283.219L312.826 229.054C321.779 242.838 333.805 254.361 347.959 262.719C362.112 271.076 378.01 276.041 394.405 277.225C427.183 274.611 458.256 261.539 483.045 239.934C485.339 237.947 487.18 235.49 488.441 232.73C489.703 229.969 490.356 226.969 490.356 223.934C490.356 220.899 489.703 217.899 488.441 215.138C487.18 212.378 485.339 209.921 483.045 207.934C458.895 186.707 404.559 158.334 365.327 176.553L392.762 149.118C417.871 149.95 453.754 147.646 471.695 129.705Z" fill="white"/>
</svg>
