<svg width="512" height="512" viewBox="0 0 512 512" fill="none" xmlns="http://www.w3.org/2000/svg">
<path d="M256 0C205.368 0 155.873 15.0141 113.774 43.1438C71.6751 71.2734 38.863 111.255 19.487 158.033C0.110921 204.811 -4.95873 256.284 4.91908 305.943C14.7969 355.602 39.1785 401.217 74.9808 437.019C110.783 472.822 156.398 497.203 206.057 507.081C255.716 516.959 307.189 511.889 353.967 492.513C400.745 473.137 440.727 440.325 468.856 398.226C496.986 356.127 512 306.632 512 256C511.927 188.127 484.932 123.055 436.938 75.0618C388.945 27.0683 323.873 0.0734097 256 0ZM266.667 447.467V420.053C266.667 396.347 257.249 373.611 240.486 356.847C223.723 340.084 200.987 330.667 177.28 330.667H177.067C168.259 330.667 159.537 328.932 151.4 325.561C143.263 322.189 135.87 317.248 129.643 311.019L64.5121 245.845C66.2519 211.954 76.9582 179.132 95.5369 150.734C114.116 122.335 139.901 99.3784 170.257 84.2087C200.614 69.0391 234.454 62.2007 268.319 64.3923C302.184 66.5839 334.86 77.7269 363.008 96.6827C357.359 100.828 350.538 103.07 343.531 103.083H312.939C308.577 103.083 304.258 103.943 300.229 105.614C296.2 107.285 292.54 109.734 289.459 112.822C286.378 115.909 283.936 119.573 282.272 123.605C280.609 127.638 279.757 131.958 279.765 136.32V158.549C279.765 167.347 276.27 175.785 270.049 182.006C263.828 188.228 255.39 191.723 246.592 191.723C242.229 191.711 237.906 192.561 233.871 194.223C229.836 195.885 226.169 198.327 223.08 201.409C219.99 204.49 217.539 208.151 215.867 212.181C214.194 216.212 213.333 220.532 213.333 224.896V247.125C213.333 255.923 216.829 264.361 223.05 270.582C229.271 276.804 237.709 280.299 246.507 280.299H335.168C343.966 280.299 352.404 283.794 358.625 290.015C364.846 296.236 368.341 304.674 368.341 313.472V345.899C368.342 350.258 369.201 354.574 370.87 358.6C372.539 362.627 374.986 366.285 378.069 369.365L395.84 387.136C362.169 423.145 315.891 444.759 266.667 447.467Z" fill="white"/>
</svg>
