<svg width="512" height="512" viewBox="0 0 512 512" fill="none" xmlns="http://www.w3.org/2000/svg">
<path d="M468.27 139.028C466.81 127.051 462.833 115.517 456.6 105.185C450.367 94.8533 442.02 85.9563 432.106 79.0783C422.192 72.2003 410.935 67.4969 399.075 65.2767C387.215 63.0565 375.019 63.3699 363.289 66.1961C350.077 51.8413 331.745 43.2655 312.259 42.3241C307.049 31.5667 299.344 22.2097 289.786 15.0324C280.228 7.85511 269.094 3.06522 257.31 1.06162C245.526 -0.941972 233.435 -0.101288 222.042 3.51367C210.649 7.12862 200.284 13.4132 191.811 21.8441C175.753 19.3076 159.308 22.1495 145.032 29.9276C130.757 37.7058 119.452 49.984 112.878 64.8521C94.7662 68.0294 78.1619 76.9623 65.5297 90.3247C52.8975 103.687 44.9108 120.767 42.7552 139.028C-3.36747 161.001 -24.7435 251.711 44.1419 255.657H106.179C120.006 255.664 133.625 259.03 145.862 265.467C158.1 271.903 168.59 281.217 176.43 292.607C186.223 281.223 198.359 272.088 212.007 265.825C225.656 259.563 240.496 256.321 255.513 256.321C270.529 256.321 285.369 259.563 299.018 265.825C312.666 272.088 324.802 281.223 334.595 292.607C342.435 281.217 352.925 271.903 365.163 265.467C377.4 259.03 391.019 255.664 404.846 255.657H466.883C535.769 251.711 514.393 161.023 468.27 139.028ZM191.513 148.991C185.855 148.991 180.428 151.238 176.428 155.239C172.427 159.24 170.179 164.666 170.179 170.324C170.179 175.982 167.932 181.408 163.931 185.409C159.93 189.41 154.504 191.657 148.846 191.657C143.188 191.657 137.762 189.41 133.761 185.409C129.76 181.408 127.513 175.982 127.513 170.324C127.513 153.35 134.255 137.072 146.258 125.069C158.26 113.067 174.539 106.324 191.513 106.324C197.17 106.324 202.597 108.572 206.597 112.573C210.598 116.573 212.846 121.999 212.846 127.657C212.846 133.315 210.598 138.742 206.597 142.742C202.597 146.743 197.17 148.991 191.513 148.991ZM362.179 212.991C356.521 212.991 351.095 210.743 347.094 206.742C343.093 202.742 340.846 197.315 340.846 191.657C340.846 186 338.598 180.573 334.597 176.573C330.597 172.572 325.17 170.324 319.513 170.324C313.855 170.324 308.428 168.076 304.428 164.076C300.427 160.075 298.179 154.649 298.179 148.991C298.179 143.333 300.427 137.907 304.428 133.906C308.428 129.905 313.855 127.657 319.513 127.657C336.486 127.657 352.765 134.4 364.767 146.403C376.77 158.405 383.513 174.684 383.513 191.657C383.513 197.315 381.265 202.742 377.264 206.742C373.263 210.743 367.837 212.991 362.179 212.991ZM317.379 359.593L300.419 511.657H210.713L193.646 359.593C193.646 343.185 200.164 327.449 211.766 315.847C223.368 304.245 239.104 297.727 255.513 297.727C271.921 297.727 287.657 304.245 299.259 315.847C310.861 327.449 317.379 343.185 317.379 359.593ZM148.846 340.991L167.705 511.657C145.423 511.66 123.828 503.941 106.597 489.814C89.3663 475.687 77.5635 456.025 73.1979 434.175L46.0192 298.324H106.179C117.495 298.324 128.348 302.819 136.349 310.821C144.351 318.822 148.846 329.675 148.846 340.991ZM404.846 298.324H465.006L437.827 434.196C433.458 456.039 421.656 475.693 404.43 489.815C387.204 503.938 365.617 511.656 343.342 511.657L362.179 340.991C362.179 329.675 366.674 318.822 374.676 310.821C382.678 302.819 393.53 298.324 404.846 298.324Z" fill="white"/>
</svg>
