<svg width="512" height="512" viewBox="0 0 512 512" fill="none" xmlns="http://www.w3.org/2000/svg">
<path d="M405.077 384C375.68 384 351.787 360.085 351.787 330.667C351.787 301.248 375.701 277.333 405.077 277.333C434.453 277.333 458.368 301.248 458.368 330.667C458.368 360.085 434.453 384 405.077 384ZM490.667 512H320C313.387 512 307.179 508.949 303.147 503.744C299.115 498.517 297.685 491.733 299.328 485.355C311.296 438.997 355.84 405.355 405.312 405.355C454.784 405.355 499.349 438.997 511.296 485.355C512.939 491.733 511.531 498.539 507.477 503.744C503.445 508.949 497.237 512 490.624 512H490.667ZM257.835 474.688C267.627 436.651 293.163 405.077 326.229 385.173C315.477 369.664 309.099 350.912 309.099 330.667C309.099 302.4 321.6 277.205 341.099 259.627V106.603C341.099 47.7227 293.376 0 234.496 0H106.603C47.7227 0 0 47.7227 0 106.603V405.333C0 464.235 47.7653 512 106.667 512H234.453C242.901 512 251.029 510.763 258.923 508.907C255.616 497.835 254.912 486.037 257.835 474.688ZM127.915 405.333H106.603C94.8267 405.333 85.2907 395.776 85.2907 384C85.2907 372.224 94.8267 362.667 106.603 362.667H127.915C139.691 362.667 149.227 372.224 149.227 384C149.227 395.776 139.691 405.333 127.915 405.333ZM127.915 320H106.603C94.8267 320 85.2907 310.443 85.2907 298.667C85.2907 286.891 94.8267 277.333 106.603 277.333H127.915C139.691 277.333 149.227 286.891 149.227 298.667C149.227 310.443 139.691 320 127.915 320ZM234.517 405.333H213.205C201.429 405.333 191.893 395.776 191.893 384C191.893 372.224 201.429 362.667 213.205 362.667H234.517C246.293 362.667 255.829 372.224 255.829 384C255.829 395.776 246.293 405.333 234.517 405.333ZM234.517 320H213.205C201.429 320 191.893 310.443 191.893 298.667C191.893 286.891 201.429 277.333 213.205 277.333H234.517C246.293 277.333 255.829 286.891 255.829 298.667C255.829 310.443 246.293 320 234.517 320ZM127.915 234.667H106.603C94.8267 234.667 85.2907 225.109 85.2907 213.333C85.2907 201.557 94.8267 192 106.603 192H127.915C139.691 192 149.227 201.557 149.227 213.333C149.227 225.109 139.691 234.667 127.915 234.667ZM127.915 149.333H106.603C94.8267 149.333 85.2907 139.776 85.2907 128C85.2907 116.224 94.8267 106.667 106.603 106.667H127.915C139.691 106.667 149.227 116.224 149.227 128C149.227 139.776 139.691 149.333 127.915 149.333ZM234.517 234.667H213.205C201.429 234.667 191.893 225.109 191.893 213.333C191.893 201.557 201.429 192 213.205 192H234.517C246.293 192 255.829 201.557 255.829 213.333C255.829 225.109 246.293 234.667 234.517 234.667ZM234.517 149.333H213.205C201.429 149.333 191.893 139.776 191.893 128C191.893 116.224 201.429 106.667 213.205 106.667H234.517C246.293 106.667 255.829 116.224 255.829 128C255.829 139.776 246.293 149.333 234.517 149.333Z" fill="white"/>
</svg>
