<svg width="512" height="512" viewBox="0 0 512 512" fill="none" xmlns="http://www.w3.org/2000/svg">
<path d="M336.682 499.157C320.681 515.819 294.184 516.33 277.521 500.331C276.647 499.477 255.291 470.209 251.493 464.833L223.182 492.715C210.829 505.088 194.252 511.936 176.608 511.936C158.965 511.936 142.388 505.067 129.928 492.587L99.0356 461.697C119.048 447.596 136.798 435.052 137.182 434.668C153.204 418.007 154.826 394.028 133.256 372.887C134.216 373.719 132.382 371.97 133.256 372.887C115.805 357.762 89.371 359.64 74.2447 377.09C71.9619 379.799 61.4439 394.946 49.5819 412.225L19.3507 381.997C-6.40024 356.248 -6.40024 314.371 19.3507 288.643L42.7975 265.561C32.9195 258.415 12.3742 243.396 11.6702 242.671C-4.33078 226.01 -3.81875 199.535 12.8436 183.514C32.1728 164.187 59.4812 167.643 74.6288 185.093C79.0877 190.362 89.7124 205.829 95.2594 213.935L139.827 170.053L215.075 245.295C206.029 251.801 183.094 268.548 182.347 269.337C166.346 285.998 168.224 313.859 184.886 329.859C202.338 344.984 230.158 344.365 245.285 326.893C249.957 321.347 261.435 304.6 266.705 296.921L343.787 373.997L302.782 414.359C308.627 418.369 328.895 432.151 335.104 437.377C352.555 452.502 355.798 480.768 336.682 499.157ZM497.567 266.713C492.681 262.596 479.048 253.167 470.643 247.385L493.279 222.66C518.24 197.722 518.24 157.104 493.279 132.145L460.701 99.5478C471.261 92.3159 492.596 78.7907 497.567 74.6095C515.019 59.4844 516.917 33.0528 501.77 15.6024C484.595 -4.47193 456.647 -4.34393 439.985 11.6771C439.259 12.3811 418.629 37.6394 410.329 49.2019L379.821 18.6957C354.838 -6.24257 314.238 -6.22123 289.298 18.6957L272.252 35.7408C291.858 49.1592 310.27 61.895 313.278 64.4336C330.73 79.5587 332.629 105.99 317.481 123.441C318.398 122.566 316.649 124.401 317.481 123.441C296.338 145.008 272.358 143.387 255.696 127.366C255.248 126.939 240.25 105.67 224.569 83.42L170.08 139.995L374.167 344.067L374.039 343.939L418.095 299.907C425.541 310.19 439.281 328.984 439.985 329.645C456.647 345.645 480.264 345.922 501.77 325.72C516.896 308.27 515.019 281.838 497.567 266.713Z" fill="white"/>
</svg>
