<svg width="342" height="512" viewBox="0 0 342 512" fill="none" xmlns="http://www.w3.org/2000/svg">
<path d="M155.064 512.001C148.075 511.976 141.174 510.433 134.84 507.478C124.493 502.871 116.184 494.646 111.47 484.348C106.757 474.049 105.964 462.384 109.24 451.542L142.541 341.334H64.0772C54.0805 341.346 44.2199 339.017 35.2858 334.531C26.3517 330.046 18.5925 323.531 12.63 315.507C6.66756 307.483 2.66764 298.174 0.950849 288.326C-0.765944 278.477 -0.151878 268.364 2.74385 258.796L67.2559 45.4624C71.1882 32.2673 79.294 20.7035 90.3567 12.5065C101.419 4.30945 114.842 -0.0785414 128.611 0.00106431H207.395C216.349 0.00855535 225.169 2.18402 233.1 6.34154C241.031 10.4991 247.838 16.515 252.938 23.8753C258.039 31.2355 261.281 39.7213 262.389 48.6073C263.496 57.4933 262.436 66.5153 259.299 74.9024L223.395 170.668H277.944C289.572 170.667 300.98 173.834 310.943 179.828C320.907 185.823 329.049 194.419 334.495 204.692C339.941 214.966 342.485 226.529 341.855 238.14C341.224 249.751 337.442 260.97 330.915 270.593L194.381 490.326C190.16 496.937 184.351 502.384 177.482 506.17C170.614 509.956 162.906 511.961 155.064 512.001Z" fill="white"/>
</svg>
