<svg width="427" height="512" viewBox="0 0 427 512" fill="none" xmlns="http://www.w3.org/2000/svg">
<path d="M256 149.333V9.81333C275.735 17.2658 293.66 28.828 308.587 43.7333L382.912 118.101C397.834 133.011 409.405 150.931 416.853 170.667H277.333C271.675 170.667 266.249 168.419 262.248 164.418C258.248 160.418 256 154.991 256 149.333ZM426.667 223.68V405.333C426.633 433.613 415.384 460.724 395.387 480.721C375.391 500.717 348.279 511.966 320 512H106.667C78.3873 511.966 51.2759 500.717 31.2794 480.721C11.2828 460.724 0.0338743 433.613 0 405.333V106.667C0.0338743 78.3873 11.2828 51.2759 31.2794 31.2794C51.2759 11.2828 78.3873 0.0338743 106.667 0L202.987 0C206.464 0 209.899 0.277333 213.333 0.512V149.333C213.333 166.307 220.076 182.586 232.078 194.588C244.081 206.591 260.359 213.333 277.333 213.333H426.155C426.389 216.768 426.667 220.203 426.667 223.68ZM256 405.333C256 399.675 253.752 394.249 249.752 390.248C245.751 386.248 240.325 384 234.667 384H128C122.342 384 116.916 386.248 112.915 390.248C108.914 394.249 106.667 399.675 106.667 405.333C106.667 410.991 108.914 416.418 112.915 420.418C116.916 424.419 122.342 426.667 128 426.667H234.667C240.325 426.667 245.751 424.419 249.752 420.418C253.752 416.418 256 410.991 256 405.333ZM320 320C320 314.342 317.752 308.916 313.752 304.915C309.751 300.914 304.325 298.667 298.667 298.667H128C122.342 298.667 116.916 300.914 112.915 304.915C108.914 308.916 106.667 314.342 106.667 320C106.667 325.658 108.914 331.084 112.915 335.085C116.916 339.086 122.342 341.333 128 341.333H298.667C304.325 341.333 309.751 339.086 313.752 335.085C317.752 331.084 320 325.658 320 320Z" fill="white"/>
</svg>
