<svg width="512" height="512" viewBox="0 0 512 512" fill="none" xmlns="http://www.w3.org/2000/svg">
<path d="M202.667 53.3333C202.667 23.872 226.539 0 256 0C285.461 0 309.333 23.872 309.333 53.3333C309.333 82.7947 285.461 106.667 256 106.667C226.539 106.667 202.667 82.7947 202.667 53.3333ZM220.352 219.179L238.784 236.139C248.512 245.099 263.488 245.099 273.216 236.139L291.008 219.776C305.28 206.997 322.645 198.72 340.885 194.816L341.141 194.389C332.331 156.373 297.557 128 256 128C214.443 128 179.691 156.373 170.859 194.368L171.115 194.773C188.843 198.464 205.909 206.272 220.352 219.179ZM258.347 315.925C284.075 340.117 298.667 373.867 298.667 409.173V490.667C298.667 502.443 289.109 512 277.333 512H117.781C107.029 512 96.6613 507.947 88.768 500.629L50.5387 462.763C18.1973 430.72 0 387.072 0 341.525V116.523C0 85.248 26.9013 60.2667 58.8373 63.4667C86.592 66.24 106.667 91.6693 106.667 119.573V244.245C103.445 248.021 100.416 251.989 97.7707 256.363C78.4427 288.427 81.8987 330.283 105.835 359.787L143.979 408.939C151.211 418.24 164.608 419.925 173.909 412.715C183.211 405.483 184.896 392.085 177.685 382.784L139.541 333.632C126.848 317.973 123.904 295.659 134.315 278.4C150.357 251.819 185.621 247.851 207.104 267.776L258.347 315.947V315.925ZM512 116.523V341.547C512 387.093 493.781 430.763 461.419 462.827L423.232 500.629C415.339 507.947 404.992 512 394.219 512H337.387C339.776 505.301 341.312 498.176 341.312 490.667V424.277L406.123 359.765C430.059 330.261 433.536 288.405 414.187 256.341C411.563 251.989 408.512 248 405.291 244.224V119.552C405.291 91.648 425.365 66.24 453.12 63.4453C485.035 60.2453 511.957 85.2267 511.957 116.501L512 116.523ZM372.437 333.611L336.277 369.493C328.555 337.408 311.893 307.733 287.573 284.843L287.147 284.437L304.896 267.755C326.379 247.829 361.643 251.797 377.685 278.379C388.096 295.659 385.131 317.952 372.437 333.611Z" fill="white"/>
</svg>
