<svg width="512" height="512" viewBox="0 0 512 512" fill="none" xmlns="http://www.w3.org/2000/svg">
<path d="M256 213.333C314.816 213.333 362.667 165.483 362.667 106.667C362.667 47.8507 314.816 0 256 0C197.184 0 149.333 47.8507 149.333 106.667C149.333 165.483 197.184 213.333 256 213.333ZM307.477 242.773C363.776 260.672 407.509 307.008 421.653 364.885C424.021 374.571 416.704 384 406.72 384H292.544L268.736 300.864L307.477 242.773ZM90.3253 364.885C104.469 307.008 148.203 260.672 204.501 242.773L243.243 300.864L219.435 384H105.259C95.2747 384 87.9787 374.571 90.3253 364.885ZM512 448C512 459.776 502.443 469.333 490.667 469.333H469.333V490.667C469.333 502.443 459.776 512 448 512H64C52.224 512 42.6667 502.443 42.6667 490.667V469.333H21.3333C9.55733 469.333 0 459.776 0 448C0 436.224 9.55733 426.667 21.3333 426.667H490.667C502.443 426.667 512 436.224 512 448Z" fill="white"/>
</svg>
