<svg width="470" height="508" viewBox="0 0 470 508" fill="none" xmlns="http://www.w3.org/2000/svg">
<path d="M39.449 502.4C51.098 507.378 63.977 508.73 76.4059 506.28C88.8348 503.829 100.237 497.689 109.124 488.661L234.67 363.797L360.217 488.661C366.071 494.601 373.045 499.32 380.734 502.546C388.424 505.772 396.678 507.441 405.017 507.456C413.589 507.431 422.071 505.713 429.977 502.4C441.721 497.647 451.76 489.464 458.781 478.918C465.803 468.372 469.482 455.954 469.337 443.285V106.667C469.303 78.3873 458.054 51.2759 438.058 31.2794C418.061 11.2828 390.95 0.0338743 362.67 0L106.67 0C78.391 0.0338743 51.2796 11.2828 31.2831 31.2794C11.2865 51.2759 0.0375894 78.3873 0.00371512 106.667V443.285C-0.133953 455.964 3.55734 468.389 10.5949 478.936C17.6325 489.483 27.6889 497.661 39.449 502.4Z" fill="white"/>
</svg>
