<svg width="512" height="512" viewBox="0 0 512 512" fill="none" xmlns="http://www.w3.org/2000/svg">
<path d="M21.3333 53.3333C21.3333 23.872 45.2053 0 74.6667 0C104.128 0 128 23.872 128 53.3333C128 82.7947 104.128 106.667 74.6667 106.667C45.2053 106.667 21.3333 82.7947 21.3333 53.3333ZM495.488 410.539L339.947 446.528C340.864 450.432 341.355 454.485 341.355 458.667C341.355 492.757 309.376 519.36 273.792 510.165C255.68 505.472 240.917 490.56 236.395 472.405C228.672 441.429 248 413.355 275.691 406.784L246.485 277.333H183.872C167.701 277.333 152.939 268.203 145.707 253.739L116.501 195.307C114.005 190.293 110.656 185.92 106.709 182.293V346.283L118.357 353.301C137.6 364.885 149.376 385.685 149.376 408.149V490.667C149.376 502.464 139.819 512 128.043 512C116.267 512 106.709 502.464 106.709 490.667V408.128C106.709 400.64 102.784 393.728 96.384 389.867L37.4187 354.368C15.2533 341.056 1.57867 317.248 1.216 291.435L0 204.864C0 149.909 57.3867 108.608 114.965 137.451C133.419 146.688 147.797 162.539 157.035 181.013L183.851 234.667H236.843L213.845 132.693C211.243 121.216 218.475 109.803 229.952 107.2C241.472 104.597 252.864 111.829 255.467 123.328L319.552 407.445L485.845 368.96C497.365 366.272 508.779 373.461 511.445 384.939C514.112 396.416 506.987 407.872 495.488 410.539ZM42.6667 405.333C30.8907 405.333 21.3333 414.869 21.3333 426.667V490.667C21.3333 502.464 30.8907 512 42.6667 512C54.4427 512 64 502.464 64 490.667V426.667C64 414.869 54.4427 405.333 42.6667 405.333ZM321.429 250.645C314.688 221.824 332.587 192.853 361.365 186.048L420.565 171.968C434.603 168.64 449.045 170.965 461.291 178.56C473.536 186.112 482.091 198.016 485.376 212.011L499.627 272.853C506.368 301.675 488.469 330.645 459.691 337.451L400.491 351.531C396.331 352.533 392.128 353.003 387.968 353.003C378.091 353.003 368.384 350.272 359.787 344.939C347.541 337.387 338.987 325.483 335.701 311.467L321.429 250.645Z" fill="white"/>
</svg>
