<svg width="461" height="512" viewBox="0 0 461 512" fill="none" xmlns="http://www.w3.org/2000/svg">
<path d="M8.62259 384C26.2686 414.626 65.4016 425.148 96.0276 407.502C96.0486 407.49 96.0686 407.478 96.0896 407.466L105.583 401.983C123.503 417.315 144.101 429.205 166.34 437.055V448C166.34 483.346 194.994 512 230.34 512C265.686 512 294.34 483.346 294.34 448V437.056C316.582 429.193 337.181 417.289 355.097 401.941L364.633 407.445C395.266 425.118 434.427 414.612 452.1 383.978C469.773 353.345 459.267 314.184 428.633 296.511L419.161 291.05C423.425 267.849 423.425 244.065 419.161 220.863L428.633 215.402C459.266 197.729 469.773 158.569 452.1 127.935C434.427 97.302 395.267 86.795 364.633 104.468L355.14 109.951C337.202 94.638 316.59 82.77 294.34 74.944V64C294.34 28.654 265.686 0 230.34 0C194.994 0 166.34 28.654 166.34 64V74.944C144.098 82.807 123.499 94.711 105.583 110.059L96.0466 104.534C65.4126 86.86 26.2526 97.367 8.57959 128C-9.09341 158.633 1.41259 197.794 32.0466 215.467L41.5186 220.928C37.2546 244.129 37.2546 267.913 41.5186 291.115L32.0466 296.576C1.49759 314.296 -8.97441 353.38 8.62259 384ZM230.34 170.667C277.468 170.667 315.673 208.872 315.673 256C315.673 303.128 277.468 341.333 230.34 341.333C183.212 341.333 145.007 303.128 145.007 256C145.007 208.872 183.212 170.667 230.34 170.667Z" fill="white"/>
</svg>
