<svg width="427" height="512" viewBox="0 0 427 512" fill="none" xmlns="http://www.w3.org/2000/svg">
<path d="M353.728 45.6585L220.075 1.09314C215.699 -0.364379 210.968 -0.364379 206.592 1.09314L72.9387 45.6585C51.6887 52.7173 33.2036 66.2933 20.1098 84.4576C7.01598 102.622 -0.0205157 124.451 4.49305e-05 146.842V256.005C4.49305e-05 417.349 196.267 506.458 204.672 510.17C207.399 511.382 210.35 512.008 213.333 512.008C216.317 512.008 219.268 511.382 221.995 510.17C230.4 506.458 426.667 417.349 426.667 256.005V146.842C426.687 124.451 419.651 102.622 406.557 84.4576C393.463 66.2933 374.978 52.7173 353.728 45.6585ZM313.984 207.301L222.848 298.437C219.119 302.192 214.681 305.168 209.792 307.193C204.903 309.218 199.66 310.252 194.368 310.234H193.664C188.264 310.152 182.938 308.975 178.006 306.775C173.074 304.575 168.64 301.397 164.971 297.434L115.776 246.234C113.646 244.258 111.941 241.867 110.768 239.208C109.595 236.549 108.977 233.678 108.953 230.772C108.929 227.866 109.499 224.985 110.628 222.307C111.757 219.629 113.422 217.21 115.519 215.199C117.617 213.187 120.103 211.625 122.826 210.609C125.549 209.593 128.451 209.143 131.353 209.289C134.256 209.434 137.098 210.171 139.706 211.455C142.314 212.738 144.631 214.541 146.517 216.752L194.389 266.672L283.733 177.072C287.757 173.186 293.146 171.036 298.739 171.084C304.333 171.133 309.683 173.376 313.639 177.332C317.594 181.287 319.838 186.638 319.886 192.231C319.935 197.825 317.785 203.214 313.899 207.237L313.984 207.301Z" fill="white"/>
</svg>
