<svg width="470" height="470" viewBox="0 0 470 470" fill="none" xmlns="http://www.w3.org/2000/svg">
<path d="M234.816 239.083C201.835 239.083 191.766 248.533 191.766 279.531C191.766 311.296 201.024 320 234.816 320C268.203 320 277.846 310.933 277.846 279.531C277.846 248.128 268.203 239.083 234.816 239.083Z" fill="white"/>
<path d="M234.667 0C133.931 0 0 24.32 0 234.667C0 442.667 125.397 469.333 234.667 469.333C343.936 469.333 469.333 442.667 469.333 234.667C469.333 26.6667 343.915 0 234.667 0ZM234.816 362.667C178.304 362.667 149.504 335.04 149.12 280.576C148.693 274.944 149.12 234.56 149.12 234.56C149.12 151.659 187.456 109.824 266.325 106.667C277.931 106.219 288.021 115.349 288.491 127.125C288.96 138.901 279.808 148.821 268.032 149.291C229.333 150.848 202.752 161.216 194.496 202.859C205.333 198.741 218.603 196.373 234.816 196.373C291.691 196.373 320.512 224.341 320.512 279.488C320.512 334.635 291.669 362.624 234.816 362.624V362.667Z" fill="white"/>
</svg>
