<svg width="384" height="512" viewBox="0 0 384 512" fill="none" xmlns="http://www.w3.org/2000/svg">
<path d="M298.667 234.667H85.3333C38.272 234.667 0 272.939 0 320V490.667C0 502.443 9.55733 512 21.3333 512H362.667C374.443 512 384 502.443 384 490.667V320C384 272.939 345.728 234.667 298.667 234.667ZM128 448C128 459.776 118.443 469.333 106.667 469.333C94.8907 469.333 85.3333 459.776 85.3333 448V426.667C85.3333 414.891 94.8907 405.333 106.667 405.333C118.443 405.333 128 414.891 128 426.667V448ZM128 341.333C128 353.109 118.443 362.667 106.667 362.667C94.8907 362.667 85.3333 353.109 85.3333 341.333V320C85.3333 308.224 94.8907 298.667 106.667 298.667C118.443 298.667 128 308.224 128 320V341.333ZM213.333 448C213.333 459.776 203.776 469.333 192 469.333C180.224 469.333 170.667 459.776 170.667 448V426.667C170.667 414.891 180.224 405.333 192 405.333C203.776 405.333 213.333 414.891 213.333 426.667V448ZM213.333 341.333C213.333 353.109 203.776 362.667 192 362.667C180.224 362.667 170.667 353.109 170.667 341.333V320C170.667 308.224 180.224 298.667 192 298.667C203.776 298.667 213.333 308.224 213.333 320V341.333ZM298.667 448C298.667 459.776 289.109 469.333 277.333 469.333C265.557 469.333 256 459.776 256 448V426.667C256 414.891 265.557 405.333 277.333 405.333C289.109 405.333 298.667 414.891 298.667 426.667V448ZM298.667 341.333C298.667 353.109 289.109 362.667 277.333 362.667C265.557 362.667 256 353.109 256 341.333V320C256 308.224 265.557 298.667 277.333 298.667C289.109 298.667 298.667 308.224 298.667 320V341.333ZM320 160V192H64V160C64 118.763 97.4293 85.3333 138.667 85.3333H170.667V21.3333C170.667 9.55733 180.224 0 192 0C203.776 0 213.333 9.55733 213.333 21.3333V85.3333H245.333C286.571 85.3333 320 118.763 320 160Z" fill="white"/>
</svg>
