<svg width="461" height="512" viewBox="0 0 461 512" fill="none" xmlns="http://www.w3.org/2000/svg">
<path d="M428.818 296.192L419.197 290.645C421.373 279.04 422.461 267.435 422.461 255.979C422.461 244.523 421.373 232.896 419.197 221.312L428.818 215.765C459.453 198.144 470.013 159.019 452.391 128.384C434.77 97.728 395.666 87.168 365.01 104.789L355.41 110.315C337.469 94.9333 316.797 83.008 294.461 75.136V64C294.461 28.6507 265.81 0 230.461 0C195.111 0 166.461 28.6507 166.461 64V75.136C144.125 83.0293 123.453 94.9547 105.511 110.315L95.9112 104.789C65.2765 87.168 26.1512 97.728 8.52988 128.363C-9.09146 159.019 1.46854 198.144 32.1032 215.765L41.7245 221.291C39.5485 232.896 38.4605 244.501 38.4605 255.957C38.4605 267.413 39.5485 279.04 41.7245 290.624L32.1032 296.149C1.46854 313.771 -9.09146 352.896 8.52988 383.531C26.1512 414.187 65.2765 424.747 95.9112 407.125L105.511 401.6C123.453 416.981 144.125 428.907 166.461 436.779V447.915C166.461 483.264 195.111 511.915 230.461 511.915C265.81 511.915 294.461 483.264 294.461 447.915V436.779C316.797 428.885 337.469 416.96 355.41 401.6L365.01 407.125C395.645 424.747 434.77 414.187 452.391 383.531C470.013 352.875 459.453 313.771 428.818 296.149V296.192ZM230.461 149.312C259.922 149.312 283.794 173.184 283.794 202.645C283.794 232.107 259.922 255.979 230.461 255.979C200.999 255.979 177.127 232.107 177.127 202.645C177.127 173.184 200.999 149.312 230.461 149.312ZM230.461 362.645C199.719 362.645 172.434 349.227 153.085 328.32C166.247 298.411 195.645 277.312 230.461 277.312C265.277 277.312 294.674 298.411 307.858 328.341C288.509 349.248 261.202 362.645 230.461 362.645Z" fill="white"/>
</svg>
