<svg width="512" height="512" viewBox="0 0 512 512" fill="none" xmlns="http://www.w3.org/2000/svg">
<path d="M458.645 0L351.979 0.0426667C322.645 0.0426667 298.667 24.064 298.667 53.376V199.552C298.688 222.357 324.395 235.712 343.061 222.613L386.731 191.979H458.667C488.128 191.979 512 168.107 512 138.645V53.312C512 23.872 488.107 0 458.645 0ZM468.971 90.4533L424.512 136.256C407.531 153.813 379.328 153.685 362.539 135.936L346.133 118.592C338.304 110.315 338.368 97.3653 346.261 89.1733C354.688 80.4053 368.747 80.4693 377.088 89.3013L393.664 106.816L438.293 60.8213C446.635 52.1813 460.48 52.1387 468.864 60.736C476.928 68.992 476.971 82.1547 468.949 90.4747L468.971 90.4533ZM160 256C224.683 256 277.333 203.371 277.333 138.667C277.333 73.9627 224.683 21.3333 160 21.3333C95.3173 21.3333 42.6667 73.9627 42.6667 138.667C42.6667 203.371 95.3173 256 160 256ZM160 298.667C71.7653 298.667 0 370.432 0 458.667V490.667C0 502.443 9.536 512 21.3333 512H298.667C310.464 512 320 502.443 320 490.667V458.667C320 370.432 248.235 298.667 160 298.667Z" fill="white"/>
</svg>
