<svg width="512" height="512" viewBox="0 0 512 512" fill="none" xmlns="http://www.w3.org/2000/svg">
<path d="M490.662 169.776V83.5189C502.651 81.7652 511.995 71.8627 511.995 59.3509C511.995 48.657 505.168 39.1609 495.036 35.7602L391.852 1.28326C386.753 -0.427754 381.249 -0.427754 376.172 1.28326L272.967 35.7816C262.834 39.1609 256.008 48.657 256.008 59.3722C256.008 71.8627 265.352 81.7652 277.34 83.5403V169.797C265.565 169.797 256.008 179.379 256.008 191.185C256.008 202.991 265.565 212.572 277.34 212.572H490.662C502.459 212.572 511.995 202.991 511.995 191.185C511.995 179.379 502.459 169.797 490.662 169.797V169.776ZM447.998 169.776H405.334V84.2247H447.998V169.776ZM320.005 84.2247H362.669V169.776H320.005V84.2247ZM256.008 358.8C256.008 348.106 249.182 338.61 239.049 335.209L135.844 300.711C130.745 299 125.241 299 120.164 300.711L16.9591 335.209C6.82631 338.589 0 348.085 0 358.8C0 371.29 9.34351 381.193 21.3322 382.968V469.225C9.55684 469.225 0 478.785 0 490.612C0 502.44 9.55684 512 21.3322 512H234.654C246.43 512 255.987 502.44 255.987 490.612C255.987 478.785 246.43 469.225 234.654 469.225V382.968C246.643 381.214 255.987 371.312 255.987 358.8H256.008ZM64.018 383.652H106.682V469.203H64.018V383.652ZM149.347 469.203V383.652H192.011V469.203H149.347ZM505.744 464.776C514.085 473.139 514.085 486.656 505.744 495.018C501.585 499.189 496.123 501.285 490.662 501.285C485.201 501.285 479.74 499.189 475.581 495.018L428.5 447.816H341.337C317.807 447.816 298.672 428.631 298.672 405.04V329.328L164.237 213.813C154.765 205.685 149.347 193.837 149.347 181.325V105.612H72.8495C61.4581 105.612 50.7494 101.164 42.6858 93.0793L6.27167 56.5705C-2.06923 48.2079 -2.06923 34.6908 6.27167 26.3283C14.6126 17.9657 28.0945 17.9657 36.4354 26.3283L72.8495 62.837H149.347C172.876 62.837 192.011 82.0218 192.011 105.612V181.325L326.426 296.84C335.897 304.989 341.337 316.837 341.337 329.328V405.04H428.5C439.721 405.04 450.729 409.617 458.664 417.573L505.744 464.776Z" fill="white"/>
</svg>
