<svg width="470" height="470" viewBox="0 0 470 470" fill="none" xmlns="http://www.w3.org/2000/svg">
<path d="M234.667 0C133.931 0 0 24.32 0 234.667C0 442.667 125.419 469.333 234.667 469.333C343.915 469.333 469.333 442.667 469.333 234.667C469.333 26.6667 343.915 0 234.667 0ZM234.667 362.667C179.648 362.667 149.355 332.373 149.355 277.333C149.355 265.557 158.891 256 170.688 256C182.485 256 192.021 265.557 192.021 277.333C192.021 308.843 203.179 320 234.667 320C267.776 320 277.355 311.296 277.355 281.173C277.355 251.691 269.781 245.333 234.667 245.333C222.869 245.333 213.333 235.776 213.333 224C213.333 212.224 222.869 202.667 234.667 202.667C256.512 202.667 262.827 196.352 262.827 174.507C262.827 153.792 257.835 149.333 234.667 149.333C203.925 149.333 202.688 155.499 202.688 170.667C202.688 182.443 193.152 192 181.355 192C169.557 192 160.021 182.443 160.021 170.667C160.021 106.667 216.213 106.667 234.667 106.667C293.205 106.667 305.493 143.552 305.493 174.507C305.493 191.893 301.632 206.443 294.315 217.707C308.907 228.757 320.021 247.936 320.021 281.173C320.021 335.253 291.307 362.667 234.667 362.667Z" fill="white"/>
</svg>
