<svg width="512" height="512" viewBox="0 0 512 512" fill="none" xmlns="http://www.w3.org/2000/svg">
<path d="M251.384 0C143.472 0 0 26.5309 0 256C0 482.909 134.353 512 251.384 512C368.414 512 512 489.332 512 262.447C512 35.5607 368.414 0 251.384 0ZM330.341 381.463C327.553 382.906 301.615 395.636 251.384 395.636C189.955 395.636 166.873 366.266 164.451 362.915C160.977 358.121 159.423 352.186 160.154 346.275C160.634 342.086 166.165 304.291 203.826 269.568C219.869 254.79 236.438 245.76 251.041 237.801C277.322 223.465 285.663 217.972 285.663 197.818C285.663 177.268 272.568 162.909 253.806 162.909C240.917 162.909 223.64 166.749 214.682 184.972C209.014 196.468 195.348 201.146 183.99 195.351C172.723 189.58 168.153 175.616 173.798 164.119C188.721 133.772 217.904 116.364 253.806 116.364C298.027 116.364 331.369 151.389 331.369 197.818C331.369 246.807 298.781 264.564 272.614 278.831C259.725 285.859 246.379 293.12 234.495 304.081C219.938 317.487 212.556 331.194 208.9 340.527C216.327 344.413 229.696 349.068 251.384 349.068C290.348 349.068 309.636 339.921 309.842 339.852C321.04 334.336 334.775 339.06 340.305 350.487C345.835 361.891 341.493 375.645 330.341 381.44V381.463Z" fill="white"/>
</svg>
