<svg width="512" height="512" viewBox="0 0 512 512" fill="none" xmlns="http://www.w3.org/2000/svg">
<path d="M493.307 210.523L447.419 164.571V127.92C447.419 92.6987 418.789 64.0267 383.611 64.0267H347.003L301.115 18.096C276.987 -6.032 234.96 -6.032 210.853 18.096L164.965 64.0267H128.357C93.1573 64.0267 64.5493 92.6773 64.5493 127.92V164.571L18.64 210.523C-6.21333 235.44 -6.21333 275.952 18.64 300.869L64.528 346.821V383.472C64.528 418.693 93.1573 447.365 128.336 447.365H164.944L210.832 493.296C222.885 505.349 238.928 512.005 255.973 512.005C273.019 512.005 289.04 505.349 301.093 493.296L346.981 447.365H383.589C418.789 447.365 447.397 418.715 447.397 383.472V346.821L493.307 300.869C518.16 275.952 518.16 235.44 493.307 210.523ZM388.304 217.84L280.485 324.4C267.387 337.413 250.128 343.941 232.891 343.941C215.653 343.941 198.48 337.435 185.339 324.464L129.893 271.152C121.531 262.853 121.445 249.371 129.744 240.987C138.064 232.645 151.525 232.539 159.931 240.837L215.355 294.128C225.019 303.707 240.741 303.728 250.427 294.128L358.267 187.547C366.672 179.227 380.155 179.312 388.453 187.696C396.752 196.08 396.667 209.541 388.304 217.84Z" fill="white"/>
</svg>
