<svg width="512" height="512" viewBox="0 0 512 512" fill="none" xmlns="http://www.w3.org/2000/svg">
<path d="M256 0C205.368 0 155.873 15.0141 113.774 43.1438C71.6751 71.2734 38.863 111.255 19.487 158.033C0.110921 204.811 -4.95873 256.284 4.91908 305.943C14.7969 355.602 39.1785 401.217 74.9808 437.019C110.783 472.822 156.398 497.203 206.057 507.081C255.716 516.959 307.189 511.889 353.967 492.513C400.745 473.137 440.727 440.325 468.856 398.226C496.986 356.127 512 306.632 512 256C511.927 188.127 484.932 123.055 436.938 75.0618C388.945 27.0683 323.873 0.0734097 256 0ZM256 64C293.886 64.0364 330.917 75.2656 362.442 96.2774C393.967 117.289 418.582 147.147 433.195 182.101L299.179 208.917C269.674 214.805 239.297 214.805 209.792 208.917L78.5708 182.656C93.1161 147.563 117.731 117.564 149.309 96.4467C180.886 75.3291 218.012 64.0386 256 64ZM64.1281 262.549L131.413 276.011C143.696 278.468 155.287 283.598 165.363 291.039C175.439 298.479 183.754 308.046 189.717 319.061L203.051 343.659C209.782 356.11 213.315 370.038 213.333 384.192V443.136C172.051 433.661 135.051 410.825 108.073 378.173C81.0947 345.521 65.6476 304.878 64.1281 262.549ZM298.667 443.221V384.277C298.685 370.123 302.218 356.195 308.949 343.744L322.283 319.147C328.246 308.132 336.561 298.564 346.637 291.124C356.714 283.684 368.305 278.553 380.587 276.096L447.872 262.635C446.353 304.963 430.906 345.606 403.927 378.258C376.949 410.911 339.949 433.746 298.667 443.221Z" fill="white"/>
</svg>
